<svg width="38" height="38" viewBox="0 0 38 38" fill="none" xmlns="http://www.w3.org/2000/svg">
<g clip-path="url(#clip0_3775_4134)">
<path d="M19 24.0669C21.7983 24.0669 24.0667 21.7985 24.0667 19.0003C24.0667 16.202 21.7983 13.9336 19 13.9336C16.2018 13.9336 13.9333 16.202 13.9333 19.0003C13.9333 21.7985 16.2018 24.0669 19 24.0669Z" fill="#C5C8CE"/>
<path d="M14.25 3.16699L11.3525 6.33366H6.33329C4.59163 6.33366 3.16663 7.75866 3.16663 9.50033V28.5003C3.16663 30.242 4.59163 31.667 6.33329 31.667H31.6666C33.4083 31.667 34.8333 30.242 34.8333 28.5003V9.50033C34.8333 7.75866 33.4083 6.33366 31.6666 6.33366H26.6475L23.75 3.16699H14.25ZM19 26.917C14.63 26.917 11.0833 23.3703 11.0833 19.0003C11.0833 14.6303 14.63 11.0837 19 11.0837C23.37 11.0837 26.9166 14.6303 26.9166 19.0003C26.9166 23.3703 23.37 26.917 19 26.917Z" fill="#C5C8CE"/>
</g>
<defs>
<clipPath id="clip0_3775_4134">
<rect width="38" height="38" fill="white"/>
</clipPath>
</defs>
</svg>
