<svg width="21" height="19" viewBox="0 0 21 19" fill="none" xmlns="http://www.w3.org/2000/svg">
<path d="M7.61821 0.21936L5.79782 2.20886H2.64446C1.55024 2.20886 0.654968 3.10413 0.654968 4.19835V16.1353C0.654968 17.2296 1.55024 18.1248 2.64446 18.1248H18.5604C19.6547 18.1248 20.5499 17.2296 20.5499 16.1353V4.19835C20.5499 3.10413 19.6547 2.20886 18.5604 2.20886H15.4071L13.5867 0.21936H7.61821ZM10.6025 15.1406C7.85695 15.1406 5.62871 12.9123 5.62871 10.1668C5.62871 7.42134 7.85695 5.1931 10.6025 5.1931C13.348 5.1931 15.5762 7.42134 15.5762 10.1668C15.5762 12.9123 13.348 15.1406 10.6025 15.1406Z" fill="white"/>
</svg>
