<svg width="19" height="19" viewBox="0 0 19 19" fill="none" xmlns="http://www.w3.org/2000/svg">
<path d="M2.09082 0.499999C1.65153 0.0607062 0.939293 0.0607072 0.5 0.5C0.0607072 0.939293 0.0607071 1.65153 0.5 2.09082L7.90918 9.5L0.499999 16.9092C0.0607062 17.3485 0.0607072 18.0607 0.5 18.5C0.939293 18.9393 1.65153 18.9393 2.09082 18.5L9.5 11.0908L16.9092 18.5C17.3485 18.9393 18.0607 18.9393 18.5 18.5C18.9393 18.0607 18.9393 17.3485 18.5 16.9092L11.0908 9.5L18.5 2.09082C18.9393 1.65153 18.9393 0.939293 18.5 0.5C18.0607 0.0607072 17.3485 0.0607071 16.9092 0.5L9.5 7.90918L2.09082 0.499999Z" fill="#79471F"/>
</svg>
