<svg width="22" height="21" viewBox="0 0 22 21" fill="none" xmlns="http://www.w3.org/2000/svg">
<path d="M2.83333 15.4167V20.8333H0.666668V0.250001H21.3995C21.4944 0.249841 21.5878 0.274642 21.6701 0.321918C21.7525 0.369193 21.8209 0.437282 21.8687 0.51936C21.9164 0.601437 21.9417 0.694619 21.9421 0.789566C21.9424 0.884513 21.9178 0.977889 21.8708 1.06033L18 7.83333L21.8708 14.6063C21.9178 14.6888 21.9424 14.7822 21.9421 14.8771C21.9417 14.972 21.9164 15.0652 21.8687 15.1473C21.8209 15.2294 21.7525 15.2975 21.6701 15.3448C21.5878 15.392 21.4944 15.4168 21.3995 15.4167H2.83333ZM2.83333 2.41667V13.25H18.6002L15.504 7.83333L18.6002 2.41667H2.83333Z" fill="#C5C8CE"/>
</svg>
