<svg width="28" height="28" viewBox="0 0 28 28" fill="none" xmlns="http://www.w3.org/2000/svg">
<path fill-rule="evenodd" clip-rule="evenodd" d="M7.24817 2.50024C6.91661 2.50024 6.59864 2.63196 6.3642 2.86639C6.12976 3.10084 5.99805 3.41881 5.99805 3.75037V6.25061C5.99805 6.94103 5.43834 7.50073 4.74792 7.50073C4.05751 7.50073 3.4978 6.94103 3.4978 6.25061V3.75037C3.4978 2.75571 3.89293 1.80179 4.59626 1.09846C5.29959 0.395126 6.25351 0 7.24817 0H17.8742C18.2057 0 18.5238 0.131713 18.7582 0.366148L25.6338 7.24182C25.8682 7.47627 26 7.79424 26 8.12579V23.7523C26 24.747 25.6048 25.7009 24.9015 26.4042C24.1982 27.1075 23.2444 27.5027 22.2496 27.5027H4.74792C4.05751 27.5027 3.4978 26.943 3.4978 26.2526C3.4978 25.5621 4.05751 25.0024 4.74792 25.0024H22.2496C22.5812 25.0024 22.8992 24.8707 23.1336 24.6363C23.368 24.4019 23.4998 24.0839 23.4998 23.7523V8.64361L17.3564 2.50024H7.24817Z" fill="#B067EE"/>
<path fill-rule="evenodd" clip-rule="evenodd" d="M17.2491 0C17.9396 0 18.4993 0.559705 18.4993 1.25012V7.50073H24.7499C25.4403 7.50073 26 8.06044 26 8.75085C26 9.44127 25.4403 10.001 24.7499 10.001H17.2491C16.5587 10.001 15.999 9.44127 15.999 8.75085V1.25012C15.999 0.559705 16.5587 0 17.2491 0Z" fill="#B067EE"/>
<path fill-rule="evenodd" clip-rule="evenodd" d="M8.80368 10.3233C9.58776 9.99399 10.4521 9.90526 11.2868 10.0684C12.1227 10.2318 12.8911 10.6405 13.4939 11.2424C13.5335 11.282 13.5702 11.3239 13.6038 11.3679C15.2149 13.0844 15.1547 15.7854 13.2606 17.6952L13.2509 17.7052L8.75035 22.143C8.26312 22.6235 7.48015 22.623 6.99358 22.1418L2.49698 17.6954C0.566597 15.7489 0.522423 12.9681 2.25298 11.2532C2.64373 10.863 3.1051 10.5386 3.65109 10.319C4.43376 9.99679 5.29433 9.91338 6.12441 10.0794C6.75965 10.2064 7.35519 10.4752 7.86803 10.8626C8.15839 10.6403 8.47495 10.4597 8.80368 10.3233V10.3233ZM10.8071 12.5222C10.4586 12.4541 10.0977 12.4913 9.77036 12.6291L9.76323 12.6321C9.55253 12.7194 9.36221 12.8483 9.21352 13.0036C9.20295 13.0146 9.19217 13.0255 9.18119 13.0363L8.74365 13.4613C8.25855 13.9325 7.48663 13.9325 7.00152 13.4613L6.56398 13.0363L6.54962 13.022C6.29976 12.7714 5.98112 12.6005 5.63406 12.5311C5.28701 12.4617 4.92715 12.4968 4.6001 12.6321L4.58653 12.6377C4.38653 12.7177 4.20078 12.8414 4.01859 13.0235L4.01391 13.0281C3.37244 13.663 3.20366 14.8538 4.26831 15.9307L7.8738 19.496L11.4899 15.9302C12.5476 14.8598 12.3787 13.6688 11.7313 13.0281C11.7019 12.9991 11.6741 12.9688 11.648 12.9371C11.4101 12.727 11.1199 12.5834 10.8071 12.5222V12.5222Z" fill="#B067EE"/>
</svg>
