<svg width="36" height="36" viewBox="0 0 36 36" fill="none" xmlns="http://www.w3.org/2000/svg">
<path d="M4.72379 17.7407C4.2328 17.2711 3.92511 16.6119 3.92511 15.8806C3.92511 14.5636 4.91923 13.4757 6.19601 13.324C5.70503 12.8548 5.39733 12.1952 5.39733 11.4639C5.39733 10.147 6.39145 9.05901 7.66823 8.90737C7.17725 8.4381 6.86956 7.77855 6.86956 7.04722C6.86956 5.62689 8.02562 4.47083 9.44594 4.47083L11.6543 4.47083L17.3599 4.47083C19.4699 4.47083 21.5539 5.02402 23.3857 6.07114L23.8001 6.3078L23.8001 21.698C22.5384 23.0448 21.5388 24.6259 20.8722 26.3584L18.9859 31.2634C18.7143 31.969 18.0238 32.4431 17.2682 32.4431L17.1133 32.4431C16.0507 32.4431 15.0798 31.9528 14.4486 31.0985C13.8177 30.2439 13.6348 29.1718 13.9473 28.1567L15.4265 23.3502C15.4614 23.2372 15.4408 23.1184 15.3709 23.0234C15.3002 22.9281 15.192 22.8736 15.0742 22.8736L5.02928 22.8736C3.60895 22.8736 2.45289 21.7179 2.45289 20.2972C2.45289 18.9803 3.447 17.8923 4.72379 17.7407ZM25.2723 21.7694L25.2723 5.575C25.2723 4.56027 26.0979 3.73472 27.1126 3.73472L31.5293 3.73472C32.544 3.73472 33.3696 4.56027 33.3696 5.575L33.3696 21.7694C33.3696 22.7842 32.544 23.6097 31.5293 23.6097L27.1126 23.6097C26.0979 23.6097 25.2723 22.7842 25.2723 21.7694ZM27.8487 7.78333C27.8487 8.59526 28.509 9.25555 29.3209 9.25555C30.1329 9.25555 30.7932 8.59526 30.7932 7.78333C30.7932 6.9714 30.1329 6.31111 29.3209 6.31111C28.509 6.31111 27.8487 6.9714 27.8487 7.78333Z" fill="white"/>
</svg>
