<svg width="36" height="36" viewBox="0 0 36 36" fill="none" xmlns="http://www.w3.org/2000/svg">
<path d="M31.2764 18.2593C31.7674 18.7289 32.0751 19.3881 32.0751 20.1194C32.0751 21.4363 31.0809 22.5243 29.8042 22.676C30.2951 23.1452 30.6028 23.8048 30.6028 24.5361C30.6028 25.853 29.6087 26.941 28.3319 27.0926C28.8229 27.5619 29.1306 28.2214 29.1306 28.9528C29.1306 30.3731 27.9746 31.5292 26.5542 31.5292H24.3459H18.6403C16.5302 31.5292 14.4463 30.976 12.6145 29.9289L12.2001 29.6922V14.302C13.4618 12.9552 14.4614 11.3741 15.1279 9.64163L17.0142 4.73656C17.2859 4.03099 17.9763 3.55694 18.7319 3.55694H18.8869C19.9495 3.55694 20.9204 4.04719 21.5516 4.90145C22.1825 5.75607 22.3654 6.82822 22.0529 7.84331L20.5737 12.6498C20.5387 12.7627 20.5593 12.8816 20.6293 12.9766C20.6999 13.0719 20.8081 13.1264 20.9259 13.1264H30.9709C32.3912 13.1264 33.5473 14.2821 33.5473 15.7028C33.5473 17.0197 32.5532 18.1076 31.2764 18.2593ZM10.7278 14.2305V30.425C10.7278 31.4397 9.9023 32.2653 8.88757 32.2653H4.4709C3.45617 32.2653 2.63062 31.4397 2.63062 30.425V14.2305C2.63062 13.2158 3.45617 12.3903 4.4709 12.3903H8.88757C9.9023 12.3903 10.7278 13.2158 10.7278 14.2305ZM8.15146 28.2167C8.15146 27.4047 7.49116 26.7444 6.67923 26.7444C5.8673 26.7444 5.20701 27.4047 5.20701 28.2167C5.20701 29.0286 5.8673 29.6889 6.67923 29.6889C7.49116 29.6889 8.15146 29.0286 8.15146 28.2167Z" fill="white"/>
</svg>
