<svg width="525" height="122" viewBox="0 0 525 122" fill="none" xmlns="http://www.w3.org/2000/svg">
<g clip-path="url(#clip0_871_2927)">
<path d="M66.1 88.2C66.1 99.3 72.5 107.2 83.6 107.2C94.7 107.2 101.1 99.3 101.1 88.2V25.5C101.1 21.2 104.1 18.3 109.1 18.3C114.1 18.3 117 21.2 117 25.5V89.6001C117 107.8 103.8 121.1 84.8 121.1C73.5 121.1 63.4 115.8 58.5 108C53.6 115.8 43.5 121.1 32.3 121.1C13.2 121.1 0 107.8 0 89.6001V25.5C0 21.2 2.9 18.3 7.9 18.3C12.9 18.3 15.9 21.2 15.9 25.5V88.2C15.9 99.3 22.3 107.2 33.4 107.2C44.5 107.2 50.9 99.3 50.9 88.2V25.5C50.9 21.2 53.5 18.3 58.5 18.3C63.5 18.3 66.1 21.2 66.1 25.5V88.2Z" fill="#27323D"/>
<path d="M169.7 2.79996C169.3 4.39996 168.7 5.59996 166.9 5.49996C166.548 5.50489 166.2 5.43239 165.879 5.2876C165.558 5.14281 165.273 4.92926 165.044 4.6621C164.815 4.39493 164.648 4.08068 164.554 3.7416C164.46 3.40252 164.441 3.04691 164.5 2.69996C164.6 1.09996 165.4 -0.100038 167.1 -3.78904e-05C168.8 0.0999621 169.4 1.39996 169.7 2.79996Z" fill="#24C8CD"/>
<path d="M161.4 8.59993C160 7.19993 158.8 8.19993 157.8 9.19993L153.1 13.6999L145.9 20.3999C145.9 18.6999 145.8 17.4999 145.9 16.2999C146 15.0999 145.9 13.0999 143.8 13.1999C141.7 13.2999 141.8 14.8999 141.8 16.4999C141.944 18.0063 141.843 19.526 141.5 20.9999C139.9 19.3999 138.5 17.9999 137 16.6999C135.5 15.3999 134.8 14.7999 133.6 16.0999C132.4 17.3999 133.3 18.4999 134.3 19.4999C135.3 20.4999 137.4 22.1999 138.8 24.1999H133.3C132 24.1999 131 24.7999 131 26.2999C131 27.7999 132 28.1999 133.2 28.1999H137.2C137.22 28.4126 137.288 28.6178 137.4 28.7999L134.5 31.5999C133.5 32.4999 132.5 33.5999 133.7 34.9999C134.9 36.3999 136.1 35.3999 137.1 34.3999L141.8 29.9999V36.8999C141.9 38.2999 142.5 39.3999 144 39.3999C145.5 39.3999 145.9 38.1999 145.9 36.7999C145.723 34.8326 145.79 32.8508 146.1 30.8999C147.9 32.5999 149.6 33.9999 151.2 35.5999C152.8 37.1999 153.2 36.9999 154.2 35.8999C155.2 34.7999 154.8 33.7999 153.9 32.7999L149.7 28.4999H154.3C154.597 28.5418 154.899 28.5226 155.188 28.4434C155.478 28.3642 155.747 28.2267 155.982 28.0394C156.216 27.8521 156.409 27.6189 156.55 27.3542C156.691 27.0895 156.776 26.7988 156.8 26.4999C156.8 24.9999 155.7 24.4999 154.4 24.2999C153.54 24.1648 152.668 24.1312 151.8 24.1999H148.1L149.3 22.8999L160.6 11.9999C161.6 10.9999 162.7 9.99993 161.4 8.59993Z" fill="#0CC1C7"/>
<path d="M135.7 54.4C135.7 50.1 138.4 46.8 143.4 46.8C148.4 46.8 151 50.1 151 54.4V112.1C151 116.4 148.4 119.7 143.4 119.7C138.4 119.7 135.7 116.4 135.7 112.1V54.4Z" fill="#27323D"/>
<path d="M167.3 67.5C167.3 56.4 176 46.8 191.2 46.8C198.134 46.8318 204.896 48.958 210.6 52.9C217.7 58.4 211.3 68.4 203.7 63.4C200.244 61.0648 196.171 59.8115 192 59.8C186.4 59.8 182.5 62.2 182.5 67.1C182.5 72 185.7 74 197.4 77.3C212.4 81.8 217.1 89.8001 217.1 99.1001C217.1 112.9 206.7 121.1 190 121.1C181.4 121.1 171.8 117.9 167.5 112.8C163.2 107.7 164.1 105.8 167 102.6C169.9 99.4001 173.7 99.4001 176.8 102.6C179.9 105.8 187.3 108 190.6 108C198.2 108 201.8 104.3 201.8 99.8C201.8 95.3 198.9 91.6 189.5 89C173.2 84.7 167.3 77.9 167.3 67.5Z" fill="#27323D"/>
<path d="M277.1 80C277.1 68.9 272.1 59.8 260.3 59.8C248.5 59.8 243.5 68.9 243.5 80V112.1C243.5 116.4 240.9 119.7 235.9 119.7C230.9 119.7 228.2 116.4 228.2 112.1V23.2C228.2 18.9 230.9 15.5 235.9 15.5C240.9 15.5 243.5 18.9 243.5 23.2V56.4C246.4 51.5 253.7 46.8 263.1 46.8C280.9 46.8 292.4 60 292.4 78.2V112.1C292.4 116.4 289.8 119.7 284.8 119.7C279.8 119.7 277.1 116.4 277.1 112.1V80Z" fill="#27323D"/>
<path d="M309.8 34C309.8 24.6 314.2 19.7 324.2 19.7H345.5C363.8 19.7 376.4 32.1999 376.4 51.0999C376.4 69.9999 363.8 82.3 345.5 82.3H325.9V112.1C325.9 116.4 322.8 119.7 317.8 119.7C312.8 119.7 309.8 116.4 309.8 112.1V34ZM325.9 68.4H343.8C353.9 68.4 360.3 61.0999 360.3 51.0999C360.3 41.0999 353.8 33.5999 343.8 33.5999H325.9V68.4Z" fill="#CF7AFE"/>
<path d="M417.6 121.1C394.6 121.1 379.9 104 379.9 84C379.9 64 394.6 46.8 417.6 46.8C440.6 46.8 455.2 64.1 455.2 84C455.2 103.9 440.5 121.1 417.6 121.1ZM417.6 108C431.4 108 439.9 97.8 439.9 84C439.9 70.2 431.4 59.8 417.6 59.8C403.8 59.8 395.2 70.3 395.2 84C395.2 97.7 403.7 108 417.6 108Z" fill="#CF7AFE"/>
<path d="M492.7 112.3C492.7 114.263 491.92 116.145 490.533 117.533C489.145 118.92 487.263 119.7 485.3 119.7C482.995 119.539 480.763 118.819 478.8 117.6C472.3 113.9 469.1 107.6 469.1 96.9V23.3C469.1 19 471.7 15.5 476.7 15.5C477.744 15.4434 478.788 15.6056 479.765 15.9762C480.743 16.3468 481.632 16.9176 482.376 17.652C483.12 18.3865 483.702 19.2683 484.085 20.241C484.468 21.2136 484.643 22.2556 484.6 23.3V94.6C484.6 102.2 486.5 104.7 489.8 106.9C490.71 107.472 491.456 108.27 491.964 109.217C492.472 110.163 492.726 111.226 492.7 112.3Z" fill="#CF7AFE"/>
<path d="M524.6 112.3C524.613 113.267 524.434 114.227 524.073 115.124C523.712 116.022 523.177 116.838 522.498 117.527C521.818 118.215 521.009 118.762 520.117 119.135C519.225 119.508 518.267 119.7 517.3 119.7C514.989 119.569 512.751 118.846 510.8 117.6C504.2 113.9 501 107.6 501 96.9V23.3C501 19 503.7 15.5 508.7 15.5C509.744 15.4434 510.788 15.6056 511.765 15.9762C512.743 16.3468 513.632 16.9176 514.376 17.652C515.12 18.3865 515.702 19.2683 516.085 20.241C516.468 21.2136 516.643 22.2556 516.6 23.3V94.6C516.6 102.2 518.4 104.7 521.7 106.9C522.624 107.456 523.381 108.251 523.892 109.202C524.402 110.152 524.647 111.222 524.6 112.3Z" fill="#CF7AFE"/>
</g>
<defs>
<clipPath id="clip0_871_2927">
<rect width="524.6" height="121.1" fill="white"/>
</clipPath>
</defs>
</svg>
