<svg width="26" height="26" viewBox="0 0 26 26" fill="none" xmlns="http://www.w3.org/2000/svg">
<path d="M22.1924 3.8076C19.737 1.35225 16.4724 0 13 0C9.52763 0 6.26295 1.35225 3.8076 3.8076C1.35225 6.26295 0 9.52763 0 13C0 16.4724 1.35225 19.737 3.8076 22.1924C6.26295 24.6478 9.52763 26 13 26C16.4724 26 19.737 24.6478 22.1924 22.1924C24.6478 19.737 26 16.4724 26 13C26 9.52763 24.6478 6.26295 22.1924 3.8076ZM5.64207 21.8002C6.07133 18.1067 9.24695 15.255 13 15.255C14.9785 15.255 16.8389 16.0258 18.2384 17.4251C19.4207 18.6076 20.1663 20.1514 20.3581 21.8C18.3646 23.4697 15.7977 24.4766 13 24.4766C10.2023 24.4766 7.63564 23.4699 5.64207 21.8002ZM13 13.6859C10.823 13.6859 9.05156 11.9146 9.05156 9.7375C9.05156 7.56026 10.823 5.78906 13 5.78906C15.177 5.78906 16.9484 7.56026 16.9484 9.7375C16.9484 11.9146 15.177 13.6859 13 13.6859ZM21.6693 20.5123C21.2811 18.9472 20.4716 17.5041 19.3155 16.348C18.3792 15.4117 17.2716 14.7093 16.0635 14.2691C17.5158 13.2843 18.4719 11.6204 18.4719 9.7375C18.4719 6.72038 16.0171 4.26562 13 4.26562C9.98288 4.26562 7.52812 6.72038 7.52812 9.7375C7.52812 11.6214 8.48503 13.2858 9.93845 14.2705C8.82701 14.6756 7.79849 15.3018 6.91359 16.1262C5.63216 17.3196 4.74229 18.8412 4.3297 20.5111C2.58231 18.4967 1.52344 15.8697 1.52344 13C1.52344 6.67178 6.67178 1.52344 13 1.52344C19.3282 1.52344 24.4766 6.67178 24.4766 13C24.4766 15.8703 23.4173 18.4979 21.6693 20.5123Z" fill="#C5C8CE"/>
</svg>
