<svg width="28" height="28" viewBox="0 0 28 28" fill="none" xmlns="http://www.w3.org/2000/svg">
<g clip-path="url(#clip0_3394_9934)">
<path fill-rule="evenodd" clip-rule="evenodd" d="M7.09375 0.75C3.59559 0.75 0.75 3.59559 0.75 7.09375V20.9062C0.75 24.4044 3.59559 27.25 7.09375 27.25H16.7422C17.4412 27.25 18.0078 26.6834 18.0078 25.9844C18.0078 25.2854 17.4412 24.7188 16.7422 24.7188H7.09375C4.99176 24.7188 3.28125 23.0082 3.28125 20.9062V7.09375C3.28125 4.99176 4.99176 3.28125 7.09375 3.28125H20.9062C23.0082 3.28125 24.7188 4.99176 24.7188 7.09375V16.8184C24.7188 17.5174 25.2854 18.084 25.9844 18.084C26.6834 18.084 27.25 17.5174 27.25 16.8184V7.09375C27.25 3.59559 24.4044 0.75 20.9062 0.75H7.09375ZM7.34766 5.77734C6.50845 5.77734 5.82812 6.45767 5.82812 7.29688C5.82812 8.13608 6.50845 8.81641 7.34766 8.81641C8.18686 8.81641 8.86719 8.13608 8.86719 7.29688C8.86719 6.45767 8.18686 5.77734 7.34766 5.77734ZM11.6133 6.13281C10.9143 6.13281 10.3477 6.69944 10.3477 7.39844C10.3477 8.09744 10.9143 8.66406 11.6133 8.66406H20.9062C21.6053 8.66406 22.1719 8.09744 22.1719 7.39844C22.1719 6.69944 21.6053 6.13281 20.9062 6.13281H11.6133ZM7.09375 10.1953C6.39475 10.1953 5.82812 10.7619 5.82812 11.4609C5.82812 12.1599 6.39475 12.7266 7.09375 12.7266H20.9062C21.6053 12.7266 22.1719 12.1599 22.1719 11.4609C22.1719 10.7619 21.6053 10.1953 20.9062 10.1953H7.09375ZM18.649 14.8575L15.7716 14.2824C15.3567 14.1993 14.9276 14.3294 14.6285 14.6285C14.3293 14.9278 14.1995 15.3566 14.2824 15.7716L14.8575 18.649C15.1524 20.1244 15.8709 21.4669 16.9347 22.5309L20.4949 26.091C21.242 26.838 22.2365 27.25 23.293 27.25C24.3495 27.25 25.344 26.838 26.091 26.091C27.634 24.548 27.634 22.0379 26.091 20.4949L22.5308 16.9347C21.4669 15.8708 20.1243 15.1524 18.649 14.8575ZM7.09375 14.2578C6.39475 14.2578 5.82812 14.8244 5.82812 15.5234C5.82812 16.2224 6.39475 16.7891 7.09375 16.7891H10.75C11.449 16.7891 12.0156 16.2224 12.0156 15.5234C12.0156 14.8244 11.449 14.2578 10.75 14.2578H7.09375ZM17.3397 18.1529L17.1366 17.1366L18.1529 17.3397C19.1368 17.5363 20.0314 18.015 20.7409 18.7245L24.3011 22.2847C24.8569 22.8405 24.8569 23.7454 24.3011 24.3011C24.0315 24.5708 23.6743 24.7188 23.293 24.7188C22.9117 24.7188 22.5544 24.5707 22.2848 24.3011L18.7246 20.741C18.0151 20.0314 17.5364 19.1368 17.3397 18.1529Z" fill="#B067EE"/>
</g>
<defs>
<clipPath id="clip0_3394_9934">
<rect width="28" height="28" fill="white"/>
</clipPath>
</defs>
</svg>
