<svg width="22" height="22" viewBox="0 0 22 22" fill="none" xmlns="http://www.w3.org/2000/svg">
<path d="M11 21.8333C5.01676 21.8333 0.166672 16.9833 0.166672 11C0.166672 5.01676 5.01676 0.166672 11 0.166672C16.9833 0.166672 21.8333 5.01676 21.8333 11C21.8333 16.9833 16.9833 21.8333 11 21.8333ZM5.59742 17.7773C7.13093 19.0033 9.03666 19.6698 11 19.6667C13.1342 19.6667 15.0874 18.8953 16.5976 17.617C15.892 16.8931 15.0485 16.318 14.1168 15.9257C13.1851 15.5335 12.1842 15.332 11.1733 15.3333C10.1253 15.3321 9.08847 15.5488 8.12859 15.9695C7.16872 16.3902 6.30677 17.0058 5.59742 17.7773ZM4.08401 16.2217C4.9945 15.2554 6.09323 14.4859 7.31249 13.9604C8.53175 13.435 9.84569 13.1649 11.1733 13.1667C12.4535 13.165 13.7213 13.4162 14.9041 13.9059C16.0868 14.3956 17.1612 15.1141 18.0655 16.0202C18.9929 14.7149 19.5406 13.1782 19.6478 11.5806C19.755 9.98296 19.4175 8.38688 18.6727 6.96942C17.9279 5.55195 16.8051 4.36851 15.4286 3.5504C14.0522 2.73229 12.476 2.3115 10.875 2.3347C9.27395 2.35789 7.71064 2.82418 6.35849 3.68182C5.00633 4.53947 3.91821 5.75494 3.21484 7.19339C2.51146 8.63184 2.22034 10.237 2.37376 11.8309C2.52719 13.4247 3.11916 14.9449 4.08401 16.2228V16.2217ZM11 12.0833C9.85073 12.0833 8.74853 11.6268 7.93588 10.8141C7.12322 10.0015 6.66667 8.89928 6.66667 7.75001C6.66667 6.60073 7.12322 5.49853 7.93588 4.68588C8.74853 3.87322 9.85073 3.41667 11 3.41667C12.1493 3.41667 13.2515 3.87322 14.0641 4.68588C14.8768 5.49853 15.3333 6.60073 15.3333 7.75001C15.3333 8.89928 14.8768 10.0015 14.0641 10.8141C13.2515 11.6268 12.1493 12.0833 11 12.0833ZM11 9.91667C11.5746 9.91667 12.1257 9.6884 12.5321 9.28207C12.9384 8.87574 13.1667 8.32464 13.1667 7.75001C13.1667 7.17537 12.9384 6.62427 12.5321 6.21794C12.1257 5.81161 11.5746 5.58334 11 5.58334C10.4254 5.58334 9.87427 5.81161 9.46794 6.21794C9.06161 6.62427 8.83334 7.17537 8.83334 7.75001C8.83334 8.32464 9.06161 8.87574 9.46794 9.28207C9.87427 9.6884 10.4254 9.91667 11 9.91667Z" fill="#C5C8CE"/>
</svg>
