<svg width="20" height="20" viewBox="0 0 20 20" fill="none" xmlns="http://www.w3.org/2000/svg">
<g clip-path="url(#clip0_800_3830)">
<g clip-path="url(#clip1_800_3830)">
<path d="M2.59315 9.89058C1.43613 7.85952 0.345724 5.97127 1.17017 5.14682C1.99462 4.32237 3.43454 6.06205 3.43454 6.06205H16.5652C16.5652 6.06205 18.0051 4.32237 18.8296 5.14682C19.654 5.97127 18.5636 7.85952 17.4066 9.89058" fill="#FFEC40"/>
<path d="M17.4759 10.7967V13.9233L5.31919 16.2102L2.28735 13.1784L2.52409 10.7967C2.53919 10.4992 2.56164 10.2049 2.59062 9.91429C3.15144 4.29714 6.25511 0 10 0C13.7449 0 16.8486 4.29714 17.4094 9.91429C17.4384 10.2049 17.4608 10.4992 17.4759 10.7967Z" fill="#FFEC40"/>
<path d="M5.59266 10.7969L5.4547 13.1786L7.03388 15.888L5.31919 16.2104L2.28735 13.1786L2.52368 10.7969C2.82817 4.81407 5.99674 0.0948923 9.88205 0.00183105C7.61715 0.0948923 5.77021 4.81367 5.59266 10.7969Z" fill="#FFC943"/>
<path d="M9.9687 0.000530234C9.94829 0.000530234 9.92788 0.000530234 9.90747 0.000938397C9.92176 0.00012207 9.93645 0.00012207 9.95074 0.00012207C9.95686 0.00012207 9.96257 0.00012207 9.9687 0.000530234Z" fill="#FFC943"/>
<path d="M17.4066 9.89052L17.1274 8.62032C17.9683 7.1293 18.6634 5.77256 18.436 4.93665C18.576 4.96073 18.7095 5.02644 18.8299 5.14685C19.6544 5.97134 18.5638 7.8595 17.4066 9.89052Z" fill="#FFC943"/>
<path d="M2.59318 9.89052L2.87237 8.62032C2.03155 7.1293 1.33645 5.77256 1.5638 4.93665C1.4238 4.96073 1.29033 5.02644 1.16992 5.14685C0.34543 5.97134 1.43604 7.8595 2.59318 9.89052Z" fill="#FFC943"/>
<path d="M17.4759 10.7967V13.9232L5.31919 16.2102L2.28735 13.1783L2.52409 10.7967C2.53919 10.4991 2.56164 10.2048 2.59062 9.91424L3.89021 10.8644L7.31633 9.00281L10 10.8114L12.6833 9.00281L16.1098 10.8644L17.4094 9.91424C17.4384 10.2048 17.4608 10.4991 17.4759 10.7967Z" fill="#FFC943"/>
<path d="M18.5658 9.99996C18.5658 15.5228 14.7307 20 10 20C5.26943 20 1.43433 15.5228 1.43433 9.99996L3.89024 11.7955L7.31637 9.93384L10 11.7424L12.6833 9.93384L16.1098 11.7955L18.5658 9.99996Z" fill="#E6E6E6"/>
<path d="M10 20C5.26943 20 1.43433 15.5229 1.43433 10L3.89024 11.7955L5.7931 10.7616C5.95759 15.9286 7.778 20 10 20Z" fill="#CCCCCC"/>
<path d="M11.6936 8.06608C11.6699 8.24078 11.5785 8.4069 11.4229 8.52078L10.4005 9.27098C10.2813 9.35833 10.1409 9.402 10.0001 9.402C9.85968 9.402 9.71928 9.35874 9.6005 9.2718C9.60009 9.27139 9.59968 9.27139 9.59928 9.27098L8.57642 8.52078C8.57479 8.51955 8.57315 8.51874 8.57152 8.51751C8.56989 8.51629 8.56826 8.51466 8.56622 8.51343C8.41724 8.39996 8.32907 8.23711 8.30581 8.06608C8.27968 7.87425 8.33519 7.6718 8.47805 7.51629C8.47887 7.51547 8.47968 7.51384 8.48091 7.51302L8.50499 7.4869L9.50377 6.41262C9.50417 6.41221 9.50458 6.4118 9.50499 6.41139C9.63928 6.26813 9.81928 6.19629 10.0001 6.19629C10.1805 6.19629 10.3609 6.26813 10.4948 6.41139C10.4956 6.4118 10.496 6.41221 10.4964 6.41262L11.4952 7.4869L11.5193 7.51302C11.5201 7.51384 11.5205 7.51425 11.5209 7.51547C11.6646 7.67098 11.7201 7.87384 11.6936 8.06608Z" fill="#FF4370"/>
<path d="M9.99985 6.19629V9.402C9.85961 9.402 9.71932 9.35874 9.60046 9.27172C9.59997 9.27123 9.59952 9.27123 9.59903 9.27078L8.57626 8.52094C8.57483 8.51951 8.57291 8.51858 8.57148 8.5176C8.25006 8.27747 8.2063 7.81196 8.47781 7.51625C8.47875 7.51531 8.47973 7.51388 8.48067 7.5129L9.50344 6.41262C9.50393 6.41213 9.50438 6.41168 9.50487 6.41119C9.63895 6.26808 9.8192 6.19629 9.99985 6.19629Z" fill="#E52E62"/>
<path d="M11.6936 8.06612C11.1487 8.25918 10.5793 8.35673 10.0001 8.35673H9.99968C9.4205 8.35673 8.85111 8.25878 8.30581 8.06612C8.27968 7.87429 8.33519 7.67184 8.47805 7.51633C8.47887 7.51551 8.47968 7.51388 8.48091 7.51306L8.50499 7.48694C8.98622 7.65796 9.48826 7.74449 9.99968 7.74449C9.99968 7.74449 9.99968 7.74449 10.0001 7.74449C10.5111 7.74449 11.014 7.65796 11.4952 7.48694L11.5193 7.51306C11.5201 7.51388 11.5205 7.51429 11.5209 7.51551C11.6646 7.67102 11.7201 7.87388 11.6936 8.06612Z" fill="#CC1F59"/>
<path d="M13.7113 9.02975C14.218 9.02975 14.6288 8.74398 14.6288 8.39146C14.6288 8.03894 14.218 7.75317 13.7113 7.75317C13.2045 7.75317 12.7937 8.03894 12.7937 8.39146C12.7937 8.74398 13.2045 9.02975 13.7113 9.02975Z" fill="#FFC943"/>
<path d="M6.05183 9.02975C6.55858 9.02975 6.96938 8.74398 6.96938 8.39146C6.96938 8.03894 6.55858 7.75317 6.05183 7.75317C5.54508 7.75317 5.13428 8.03894 5.13428 8.39146C5.13428 8.74398 5.54508 9.02975 6.05183 9.02975Z" fill="#FFC943"/>
<path d="M5.81222 6.82349C5.73389 6.82349 5.65552 6.79361 5.59577 6.73381C5.47622 6.61426 5.47622 6.42042 5.59577 6.30087C6.26732 5.62936 7.35997 5.62936 8.03148 6.30087C8.15103 6.42042 8.15103 6.61422 8.03148 6.73377C7.91193 6.85332 7.71809 6.85332 7.59858 6.73377C7.16577 6.30096 6.46152 6.30096 6.02871 6.73377C5.96887 6.79361 5.89054 6.82349 5.81222 6.82349Z" fill="#555E77"/>
<path d="M14.1873 6.82348C14.109 6.82348 14.0306 6.7936 13.9709 6.7338C13.538 6.30099 12.8338 6.30099 12.401 6.7338C12.2814 6.85335 12.0876 6.85335 11.9681 6.7338C11.8485 6.61425 11.8485 6.42046 11.9681 6.3009C12.6396 5.62935 13.7323 5.62935 14.4038 6.3009C14.5233 6.42046 14.5233 6.61425 14.4038 6.7338C14.344 6.7936 14.2656 6.82348 14.1873 6.82348Z" fill="#555E77"/>
</g>
</g>
<defs>
<clipPath id="clip0_800_3830">
<rect width="20" height="20" fill="white"/>
</clipPath>
<clipPath id="clip1_800_3830">
<rect width="20" height="20" fill="white"/>
</clipPath>
</defs>
</svg>
