<svg width="17" height="17" viewBox="0 0 17 17" fill="none" xmlns="http://www.w3.org/2000/svg">
<path d="M12.5667 5.25179C12.4751 6.52318 11.5319 7.5026 10.5034 7.5026C9.47493 7.5026 8.53022 6.5235 8.44018 5.25179C8.3464 3.92912 9.26454 3.00098 10.5034 3.00098C11.7423 3.00098 12.6605 3.95319 12.5667 5.25179Z" stroke="#28323C" stroke-width="1.00189" stroke-linecap="round" stroke-linejoin="round"/>
<path d="M10.5028 9.50272C8.4658 9.50272 6.50694 10.5145 6.01621 12.4849C5.95119 12.7456 6.11467 13.0035 6.38254 13.0035H14.6234C14.8913 13.0035 15.0538 12.7456 14.9897 12.4849C14.499 10.4829 12.5401 9.50272 10.5028 9.50272Z" stroke="#28323C" stroke-width="1.00189" stroke-miterlimit="10"/>
<path d="M6.25286 5.81316C6.17969 6.8288 5.41734 7.62867 4.59557 7.62867C3.77381 7.62867 3.01021 6.82911 2.93829 5.81316C2.86356 4.75656 3.60558 4.0014 4.59557 4.0014C5.58557 4.0014 6.32759 4.77595 6.25286 5.81316Z" stroke="#28323C" stroke-width="1.00189" stroke-linecap="round" stroke-linejoin="round"/>
<path d="M6.43977 9.56476C5.8755 9.30623 5.25403 9.20682 4.59535 9.20682C2.96977 9.20682 1.40358 10.0149 1.01125 11.5889C0.959666 11.7971 1.09034 12.0031 1.30417 12.0031H4.81418" stroke="#28323C" stroke-width="1.00189" stroke-miterlimit="10" stroke-linecap="round"/>
</svg>
