<svg width="22" height="22" viewBox="0 0 22 22" fill="none" xmlns="http://www.w3.org/2000/svg">
<g clip-path="url(#clip0_800_2752)">
<path d="M21.9039 10.8431C21.9039 16.9183 17.0751 21.7472 10.9999 21.7472C10.545 21.7472 10.0966 21.8155 9.65619 21.762C4.21493 21.0992 0 16.4634 0 10.8431C0 5.22284 4.21493 0.587056 9.65629 -0.0756379C10.0967 -0.129287 10.5451 -0.060954 11 -0.060954C17.0751 -0.060954 21.9039 4.76793 21.9039 10.8431Z" fill="#FFD15B"/>
<path d="M10.9999 -0.15686C10.545 -0.15686 10.0967 -0.128741 9.65625 -0.0749956C15.0975 0.587794 19.3126 5.22301 19.3126 10.8432C19.3126 16.4634 15.0975 21.0987 9.65625 21.7614C10.0967 21.815 10.545 21.8431 10.9999 21.8431C17.075 21.8431 21.9999 16.9183 21.9999 10.8431C21.9999 4.7679 17.0749 -0.15686 10.9999 -0.15686Z" fill="#FFC344"/>
<path d="M11.0001 18.4791C15.2173 18.4791 18.636 15.0604 18.636 10.8432C18.636 6.62599 15.2173 3.20728 11.0001 3.20728C6.78295 3.20728 3.36426 6.62599 3.36426 10.8432C3.36426 15.0604 6.78295 18.4791 11.0001 18.4791Z" fill="#FFF0AD"/>
<path d="M10.757 13.9761L8.76172 15.0251C8.4097 15.2101 7.99826 14.9113 8.06544 14.5192L8.44655 12.2975C8.47323 12.1418 8.42169 11.983 8.30854 11.8727L6.69428 10.2992C6.40944 10.0216 6.56664 9.53794 6.96022 9.48074L9.19101 9.15655C9.34735 9.1338 9.48238 9.03572 9.55235 8.89406L10.55 6.87258C10.726 6.51594 11.2346 6.51594 11.4106 6.87258L12.4082 8.89406C12.4781 9.03572 12.6132 9.1339 12.7695 9.15655L15.0003 9.48074C15.3939 9.53794 15.5511 10.0216 15.2663 10.2992L13.652 11.8727C13.539 11.983 13.4873 12.1418 13.514 12.2975L13.8951 14.5192C13.9624 14.9113 13.5509 15.2101 13.1988 15.0251L11.2036 13.9761C11.0638 13.9026 10.8967 13.9026 10.757 13.9761Z" fill="#FFD15B"/>
</g>
<defs>
<clipPath id="clip0_800_2752">
<rect width="22" height="22" fill="white"/>
</clipPath>
</defs>
</svg>
