<svg width="27" height="26" viewBox="0 0 27 26" fill="none" xmlns="http://www.w3.org/2000/svg">
<path fill-rule="evenodd" clip-rule="evenodd" d="M0.75 13C0.75 5.83177 6.58177 0 13.75 0C20.9182 0 26.75 5.83177 26.75 13C26.75 20.1682 20.9182 26 13.75 26C6.58177 26 0.75 20.1682 0.75 13ZM18.377 14.4103L21.8989 10.9774C22.1065 10.775 22.1812 10.4723 22.0916 10.1966C22.002 9.92083 21.7636 9.71984 21.4767 9.67814L16.6096 8.97091L14.4331 4.56061C14.3047 4.30066 14.0399 4.13603 13.75 4.13603C13.4601 4.13603 13.1953 4.30061 13.0669 4.56061L10.8904 8.97091L6.02328 9.67814C5.73636 9.71984 5.498 9.92083 5.40842 10.1966C5.31879 10.4723 5.39354 10.775 5.60113 10.9774L9.12296 14.4103L8.29157 19.2577C8.24252 19.5435 8.36003 19.8323 8.59459 20.0027C8.8292 20.1732 9.14013 20.1957 9.39678 20.0607L13.75 17.7721L18.1032 20.0607C18.2147 20.1193 18.3364 20.1482 18.4576 20.1482C18.6156 20.1482 18.7727 20.0991 18.9054 20.0027C19.14 19.8323 19.2574 19.5435 19.2084 19.2577L18.377 14.4103ZM13.7498 6.6189L15.4205 10.0043C15.5315 10.2291 15.746 10.3849 15.9942 10.421L19.7301 10.9638L17.0268 13.599C16.8472 13.774 16.7653 14.0261 16.8077 14.2732L17.4458 17.994L14.1043 16.2373C13.9933 16.179 13.8716 16.1498 13.7498 16.1498C13.6281 16.1498 13.5063 16.179 13.3954 16.2373L10.0538 17.994L10.692 14.2732C10.7343 14.0261 10.6524 13.774 10.4729 13.599L7.76953 10.9638L11.5055 10.421C11.7536 10.3849 11.9681 10.2291 12.079 10.0043L13.7498 6.6189Z" fill="#28323C"/>
</svg>
