<svg width="16" height="16" viewBox="0 0 16 16" fill="none" xmlns="http://www.w3.org/2000/svg">
<g clip-path="url(#clip0_1056_5776)">
<path d="M15.4063 6.30625C15.3531 6.14062 15.1906 6.0375 14.925 5.99687L10.4438 5.34688L8.43751 1.2875C8.31251 1.04375 8.16563 0.921875 8.00001 0.921875C7.83438 0.921875 7.68126 1.04375 7.56251 1.2875L5.55626 5.34688L1.07813 5.99687C0.809381 6.0375 0.650006 6.14062 0.593756 6.30625C0.537506 6.47188 0.609381 6.64687 0.800006 6.83437L4.04688 9.99375L3.28126 14.4563C3.25001 14.65 3.26876 14.8031 3.33438 14.9156C3.40001 15.0281 3.50001 15.0781 3.63751 15.0781C3.77501 15.0781 3.85626 15.0437 3.99376 14.9719L8.00001 12.8656L12.0063 14.9719C12.1438 15.0437 12.2625 15.0781 12.3625 15.0781C12.4625 15.0781 12.6 15.025 12.6656 14.9156C12.7313 14.8062 12.75 14.65 12.7188 14.4563L11.9531 9.99375L15.1906 6.83437C15.3875 6.64687 15.4594 6.46875 15.4063 6.30625ZM11.1594 9.17188L10.7219 9.59375L10.8281 10.1812L11.3625 13.35L8.52813 11.85L8.00001 11.5719V2.98125L9.41876 5.85313L9.68751 6.39062L10.275 6.47813L13.4531 6.94375L11.1594 9.17188Z" fill="#374553"/>
</g>
<defs>
<clipPath id="clip0_1056_5776">
<rect width="16" height="16" fill="white"/>
</clipPath>
</defs>
</svg>
