<svg width="27" height="26" viewBox="0 0 27 26" fill="none" xmlns="http://www.w3.org/2000/svg">
<path d="M26.75 8.4043C26.75 3.77011 22.9799 0 18.3457 0C14.556 0 11.2449 2.55354 10.2471 6.15445C4.97198 6.38078 0.75 10.7424 0.75 16.0723C0.75 17.8564 1.22488 19.5934 2.12665 21.1185L0.786499 25.9633L5.63155 24.6234C7.15657 25.5251 8.89365 26 10.6777 26C16.0078 26 20.3696 21.7778 20.5956 16.5023C21.3071 16.3055 21.9857 16.0173 22.622 15.6402L26.7133 16.7719L25.5816 12.6806C26.3471 11.3881 26.75 9.91702 26.75 8.4043ZM10.6777 24.4766C9.0694 24.4766 7.50668 24.0209 6.158 23.159L5.87196 22.9761L2.97148 23.7785L3.77386 20.878L3.59097 20.592C2.72908 19.2435 2.27344 17.6806 2.27344 16.0723C2.27344 11.4381 6.04355 7.66797 10.6777 7.66797C15.3119 7.66797 19.082 11.4381 19.082 16.0723C19.082 20.7065 15.3119 24.4766 10.6777 24.4766ZM24.5285 14.5871L22.3763 13.9916L22.0888 14.1787C21.6026 14.4945 21.0837 14.7446 20.539 14.9271C20.0128 10.3661 16.3833 6.73685 11.8223 6.21078C12.7496 3.44936 15.3671 1.52344 18.3457 1.52344C22.1398 1.52344 25.2266 4.61018 25.2266 8.4043C25.2266 9.73869 24.8439 11.0332 24.1201 12.1474L23.933 12.4349L24.5285 14.5871Z" fill="#C5C8CE"/>
</svg>
