<svg width="27" height="26" viewBox="0 0 27 26" fill="none" xmlns="http://www.w3.org/2000/svg">
<g clip-path="url(#clip0_874_1037)">
<path fill-rule="evenodd" clip-rule="evenodd" d="M19.1073 0C23.3281 0 26.7499 3.42178 26.7499 7.64258C26.7499 9.17613 26.2978 10.604 25.5204 11.8007L26.3825 14.9178L23.2654 14.0555C22.4329 14.5964 21.4883 14.9793 20.4744 15.1626C19.7556 10.6042 16.1453 6.99413 11.5869 6.27545C12.2314 2.70688 15.3531 0 19.1073 0ZM0.75 16.834C0.75 11.7717 4.85376 7.66797 9.91602 7.66797C14.9783 7.66797 19.082 11.7717 19.082 16.834C19.082 21.8962 14.9783 26 9.91602 26C8.10118 26 6.40973 25.4725 4.98607 24.5625L1.11737 25.6326L2.18755 21.7639C1.27765 20.3405 0.75 18.6488 0.75 16.834ZM6.10742 17.5957H7.63086V16.0723H6.10742V17.5957ZM12.2012 17.5957H13.7246V16.0723H12.2012V17.5957ZM9.1543 17.5957H10.6777V16.0723H9.1543V17.5957Z" fill="#0F172A"/>
</g>
<defs>
<clipPath id="clip0_874_1037">
<rect width="26" height="26" fill="white" transform="translate(0.75)"/>
</clipPath>
</defs>
</svg>
