<svg width="16" height="16" viewBox="0 0 16 16" fill="none" xmlns="http://www.w3.org/2000/svg">
<g clip-path="url(#clip0_1056_5711)">
<path fill-rule="evenodd" clip-rule="evenodd" d="M8.96704 15.8307C9.25424 15.9525 9.56301 16.0154 9.875 16.0156C10.0032 16.0148 10.1259 15.9635 10.2166 15.8728C10.3073 15.7822 10.3586 15.6595 10.3594 15.5312V14.2344C10.3594 13.4781 10.7875 12.7719 11.4469 12.4438C11.7204 12.3066 12.0221 12.235 12.3281 12.2344H15.5312C15.6595 12.2336 15.7822 12.1823 15.8728 12.0916C15.9635 12.0009 16.0148 11.8782 16.0156 11.75V7.0625C16.016 6.99878 16.0038 6.9356 15.9796 6.87665C15.9554 6.81769 15.9197 6.76413 15.8747 6.71907C15.8296 6.67401 15.7761 6.63835 15.7171 6.61415C15.6581 6.58995 15.595 6.57771 15.5312 6.57812H12.6875C12.5593 6.57894 12.4366 6.63024 12.3459 6.7209C12.2552 6.81156 12.2039 6.93429 12.2031 7.0625V7.51562H11.9156C11.501 7.20626 11.0387 6.96665 10.5469 6.80625L10.9812 5.71562C11.0683 5.50002 11.1011 5.26632 11.0766 5.03509C11.0521 4.80387 10.9712 4.58219 10.8409 4.38958C10.7107 4.19698 10.5351 4.03933 10.3296 3.93053C10.1241 3.82173 9.89502 3.7651 9.6625 3.76562H8.48438V2.34375C8.48355 1.71826 8.23471 1.11862 7.79242 0.676333C7.35013 0.234044 6.75049 -0.0147982 6.125 -0.015625C5.99679 -0.0148057 5.87406 0.0364895 5.7834 0.12715C5.69274 0.217811 5.64144 0.340539 5.64062 0.46875V1.76562C5.64062 2.52187 5.2125 3.22813 4.55312 3.55625C4.27956 3.69337 3.97788 3.76505 3.67188 3.76562H0.46875C0.340539 3.76644 0.217811 3.81774 0.12715 3.9084C0.0364895 3.99906 -0.0148057 4.12179 -0.015625 4.25V8.9375C-0.0148057 9.06571 0.0364895 9.18844 0.12715 9.2791C0.217811 9.36976 0.340539 9.42106 0.46875 9.42188H3.3125C3.44071 9.42106 3.56344 9.36976 3.6541 9.2791C3.74476 9.18844 3.79606 9.06571 3.79688 8.9375V8.48438H4.08437C4.49826 8.7949 4.96078 9.03461 5.45312 9.19375L5.01875 10.2844C4.93168 10.5 4.89894 10.7337 4.92341 10.9649C4.94787 11.1961 5.02879 11.4178 5.15905 11.6104C5.28931 11.803 5.46491 11.9607 5.6704 12.0695C5.8759 12.1783 6.10498 12.2349 6.3375 12.2344H7.51562V13.625C7.51467 14.254 7.76169 14.8581 8.20312 15.3062C8.42005 15.5305 8.67983 15.7088 8.96704 15.8307ZM7.20935 7.6246C7.28403 7.57389 7.37223 7.54681 7.4625 7.54688H9.1C9.9543 7.5476 10.7826 7.84097 11.4469 8.37813C11.5329 8.44699 11.6398 8.48447 11.75 8.48438H12.2031V11.2688C11.7904 11.2879 11.3861 11.3922 11.0156 11.575C10.0281 12.0687 9.39062 13.1125 9.39062 14.2344V14.9531C9.12393 14.848 8.89496 14.6651 8.73338 14.4283C8.5718 14.1915 8.48505 13.9117 8.48438 13.625V11.75C8.48479 11.6863 8.47254 11.6231 8.44835 11.5641C8.42416 11.5052 8.38849 11.4516 8.34343 11.4066C8.29837 11.3615 8.24481 11.3258 8.18585 11.3017C8.1269 11.2775 8.06372 11.2652 8 11.2656H6.3375C6.26356 11.2653 6.19081 11.247 6.12561 11.2121C6.0604 11.1772 6.00472 11.1269 5.96342 11.0656C5.92212 11.0043 5.89646 10.9338 5.88867 10.8602C5.88089 10.7867 5.89121 10.7124 5.91875 10.6438L7.04375 7.83125C7.07697 7.74732 7.13467 7.67532 7.20935 7.6246ZM15.0469 11.2656H13.1719V7.54688H15.0469V11.2656ZM2.82812 8.45312H0.953125V4.73438H2.82812V8.45312ZM5.81563 8.29062C5.35623 8.15199 4.9284 7.92481 4.55625 7.62187C4.4688 7.55343 4.36105 7.51605 4.25 7.51562H3.79688V4.73125C4.20959 4.71211 4.61388 4.60785 4.98438 4.425C5.97188 3.93125 6.60938 2.8875 6.60938 1.76562V1.04062C6.87508 1.13983 7.10419 1.31773 7.26613 1.55058C7.42806 1.78342 7.5151 2.06013 7.51562 2.34375V4.25C7.51521 4.31372 7.52745 4.3769 7.55165 4.43585C7.57585 4.49481 7.61151 4.54837 7.65657 4.59343C7.70163 4.63849 7.75519 4.67415 7.81415 4.69835C7.8731 4.72255 7.93628 4.73479 8 4.73438H9.6625C9.7368 4.73339 9.81014 4.75121 9.87571 4.78617C9.94127 4.82114 9.99693 4.87212 10.0375 4.93437C10.0794 4.99541 10.1056 5.06585 10.1138 5.13944C10.122 5.21303 10.1119 5.2875 10.0844 5.35625L9.58438 6.60313C9.42188 6.5875 9.25938 6.57812 9.1 6.57812H7.4625C7.17819 6.5767 6.90009 6.66129 6.66473 6.8208C6.42938 6.98031 6.24776 7.20727 6.14375 7.47188L5.81563 8.29062Z" fill="#374553"/>
</g>
<defs>
<clipPath id="clip0_1056_5711">
<rect width="16" height="16" fill="white"/>
</clipPath>
</defs>
</svg>
