<svg width="26" height="26" viewBox="0 0 26 26" fill="none" xmlns="http://www.w3.org/2000/svg">
<path fill-rule="evenodd" clip-rule="evenodd" d="M25.9417 3.56805C25.8242 3.28317 25.546 3.09792 25.238 3.09792H22.9022V0.762033C22.9022 0.454096 22.717 0.175916 22.4321 0.0583576C22.1472 -0.0606737 21.8199 0.00630681 21.6019 0.223498L18.5551 3.3211C18.4122 3.46395 18.3319 3.65733 18.3319 3.85964V6.59106L11.6997 13.2233C11.4022 13.5209 11.4022 14.0029 11.6997 14.3005C11.9972 14.598 12.4793 14.598 12.7768 14.3005L19.409 7.66828H22.1404C22.3427 7.66828 22.5362 7.58795 22.679 7.4451L25.7766 4.39822C25.9945 4.18027 26.06 3.85299 25.9417 3.56805ZM23.3512 8.83872C22.991 9.06531 22.576 9.1916 22.1404 9.1916H20.0398L19.5497 9.68164C20.227 10.8903 20.617 12.2807 20.617 13.7619C20.617 18.3819 16.8583 22.1407 12.2382 22.1407C7.61812 22.1407 3.85945 18.3819 3.85945 13.7619C3.85945 9.14183 7.61817 5.38306 12.2383 5.38306C13.7195 5.38306 15.1098 5.77311 16.3185 6.45033L16.8085 5.96029V3.85962C16.8085 3.42402 16.9348 3.00903 17.1614 2.64879C15.6213 1.96441 13.9647 1.57446 12.2383 1.57446C5.51827 1.57446 0.00012207 7.04178 0.00012207 13.7618C0.00012207 20.4818 5.51822 25.9999 12.2382 25.9999C18.9582 25.9999 24.4255 20.4818 24.4255 13.7618C24.4255 12.0355 24.0356 10.3788 23.3512 8.83872ZM15.2644 13.9671L18.4067 10.8248C18.8343 11.7184 19.0937 12.7067 19.0937 13.7619C19.0937 17.5421 16.0186 20.6172 12.2383 20.6172C8.45804 20.6172 5.38293 17.5421 5.38293 13.7619C5.38293 9.9816 8.45804 6.90649 12.2383 6.90649C13.2934 6.90649 14.2817 7.16583 15.1754 7.59346L12.0331 10.7358C10.448 10.8433 9.19148 12.1493 9.19148 13.7619C9.19148 15.4445 10.5556 16.8087 12.2383 16.8087C13.8507 16.8087 15.1569 15.5523 15.2644 13.9671Z" fill="#0F172A"/>
</svg>
