<svg width="22" height="22" viewBox="0 0 22 22" fill="none" xmlns="http://www.w3.org/2000/svg">
<path d="M10.4458 19.2512L5.49298 21.8604C4.61916 22.3206 3.59787 21.5772 3.76463 20.6021L4.71064 15.0757C4.77687 14.6885 4.64894 14.2934 4.36807 14.0191L0.361056 10.1053C-0.346008 9.4147 0.0442121 8.21179 1.02119 8.06951L6.55858 7.26311C6.94665 7.20654 7.28184 6.96256 7.45551 6.61021L9.9319 1.58206C10.3688 0.694977 11.6312 0.694977 12.0681 1.58206L14.5445 6.61021C14.7179 6.96256 15.0533 7.20678 15.4414 7.26311L20.9788 8.06951C21.9558 8.21179 22.346 9.41494 21.6389 10.1053L17.6319 14.0191C17.3513 14.2934 17.2231 14.6885 17.2894 15.0757L18.2354 20.6021C18.4024 21.5772 17.3808 22.3206 16.507 21.8604L11.5542 19.2512C11.2074 19.0683 10.7926 19.0683 10.4458 19.2512Z" fill="#FFD15B"/>
</svg>
