<svg width="20" height="20" viewBox="0 0 20 20" fill="none" xmlns="http://www.w3.org/2000/svg">
<path d="M17.2243 11.3957C16.8033 11.0647 16.6 10.5355 16.6 10V10V10C16.6 9.46704 16.7979 8.9344 17.2185 8.60704L18.3967 7.69001C18.5617 7.56168 18.6075 7.31418 18.5067 7.13085L16.7467 4.08751C16.6367 3.88585 16.4075 3.82168 16.2058 3.88585L14.8084 4.44714C14.3163 4.64482 13.7658 4.55844 13.3085 4.28987V4.28987C12.8457 4.01806 12.4837 3.57728 12.4084 3.04586L12.2 1.57585C12.1633 1.35585 11.98 1.20001 11.76 1.20001H8.24C8.02 1.20001 7.84584 1.35585 7.80917 1.57585L7.60103 3.04441C7.52558 3.57673 7.159 4.0211 6.69584 4.29412V4.29412C6.23963 4.56305 5.69369 4.64515 5.20227 4.44776L3.80334 3.88585C3.60167 3.81251 3.3725 3.88585 3.2625 4.08751L1.51167 7.13085C1.40167 7.32335 1.43834 7.56168 1.62167 7.69001L2.79866 8.60609C3.22 8.93404 3.4 9.46608 3.4 10V10V10C3.4 10.533 3.20215 11.0656 2.78156 11.393L1.60334 12.31C1.43834 12.4383 1.3925 12.6858 1.49334 12.8692L3.25334 15.9125C3.36334 16.1142 3.5925 16.1783 3.79417 16.1142L5.19157 15.5529C5.68371 15.3552 6.23416 15.4416 6.69149 15.7102V15.7102C7.1543 15.982 7.51634 16.4227 7.59165 16.9542L7.8 18.4242C7.84584 18.6442 8.02 18.8 8.24 18.8H11.76C11.98 18.8 12.1633 18.6442 12.1908 18.4242L12.3998 16.9495C12.4748 16.421 12.8376 15.9817 13.2986 15.7126V15.7126C13.7587 15.4441 14.3096 15.3562 14.8039 15.5548L16.1967 16.1142C16.3983 16.1875 16.6275 16.1142 16.7375 15.9125L18.4975 12.8692C18.6075 12.6675 18.5617 12.4383 18.3875 12.31L17.2243 11.3957ZM10 13.3C8.185 13.3 6.7 11.815 6.7 10C6.7 8.18501 8.185 6.70001 10 6.70001C11.815 6.70001 13.3 8.18501 13.3 10C13.3 11.815 11.815 13.3 10 13.3Z" stroke="#28323C"/>
</svg>
