<svg width="16" height="16" viewBox="0 0 16 16" fill="none" xmlns="http://www.w3.org/2000/svg">
<path fill-rule="evenodd" clip-rule="evenodd" d="M13.0001 2.55635H8.72197C8.62249 2.17533 8.39955 1.83802 8.08801 1.59715C7.77647 1.35629 7.39389 1.22545 7.0001 1.2251H3.0001C2.52959 1.22592 2.07859 1.4132 1.7459 1.7459C1.4132 2.07859 1.22592 2.52959 1.2251 3.0001V11.6657C1.2251 12.1368 1.41201 12.5886 1.74479 12.9219C2.07758 13.2553 2.52905 13.443 3.0001 13.4438H7.0001C7.09215 13.4428 7.18403 13.4355 7.2751 13.422C7.36908 13.8084 7.59031 14.1519 7.90319 14.3974C8.21608 14.6428 8.60243 14.7758 9.0001 14.7751H13.0001C13.4706 14.7743 13.9216 14.587 14.2543 14.2543C14.587 13.9216 14.7743 13.4706 14.7751 13.0001V4.33447C14.7751 3.86343 14.5882 3.41163 14.2554 3.07825C13.9226 2.74488 13.4711 2.55718 13.0001 2.55635ZM13.0001 13.8907H9.0001C8.77303 13.8904 8.55461 13.8036 8.38919 13.6481C8.22377 13.4925 8.12376 13.2798 8.10947 13.0532C8.31829 12.8875 8.48672 12.6765 8.60203 12.4361C8.71734 12.1957 8.77652 11.9323 8.7751 11.6657V3.44385H13.0001C13.2361 3.44467 13.4621 3.53877 13.629 3.70562C13.7958 3.87246 13.8899 4.09852 13.8907 4.33447V13.0001C13.8899 13.2361 13.7958 13.4621 13.629 13.629C13.4621 13.7958 13.2361 13.8899 13.0001 13.8907ZM3.0001 2.10947H7.0001C7.23605 2.1103 7.46211 2.20439 7.62895 2.37124C7.7958 2.53809 7.8899 2.76414 7.89072 3.0001V11.6657C7.8899 11.9017 7.7958 12.1277 7.62895 12.2946C7.46211 12.4614 7.23605 12.5555 7.0001 12.5563H3.0001C2.76414 12.5555 2.53809 12.4614 2.37124 12.2946C2.20439 12.1277 2.1103 11.9017 2.10947 11.6657V3.0001C2.1103 2.76414 2.20439 2.53809 2.37124 2.37124C2.53809 2.20439 2.76414 2.1103 3.0001 2.10947ZM3.50308 8.74375C3.55674 8.7656 3.61421 8.77658 3.67215 8.77604C3.73008 8.7755 3.78734 8.76346 3.84058 8.74062C3.89426 8.71762 3.94287 8.68425 3.98363 8.64242C4.02439 8.60059 4.05648 8.55113 4.07808 8.49687L4.36558 7.775H5.63433L5.92183 8.49687C5.94343 8.55113 5.97553 8.60059 6.01629 8.64242C6.05704 8.68425 6.10566 8.71762 6.15933 8.74062C6.26717 8.78541 6.38819 8.78653 6.49683 8.74375C6.55109 8.72215 6.60055 8.69005 6.64238 8.64929C6.68421 8.60854 6.71758 8.55993 6.74058 8.50625C6.7636 8.45305 6.77573 8.39578 6.77627 8.33781C6.7768 8.27985 6.76573 8.22236 6.74371 8.16875L5.41246 4.83437C5.37968 4.75172 5.32284 4.68082 5.24928 4.63087C5.17573 4.58091 5.08887 4.5542 4.99996 4.5542C4.91105 4.5542 4.82419 4.58091 4.75063 4.63087C4.67708 4.68082 4.62023 4.75172 4.58746 4.83437L3.25621 8.16875C3.23418 8.22236 3.22311 8.27985 3.22365 8.33781C3.22419 8.39578 3.23632 8.45305 3.25933 8.50625C3.28234 8.55993 3.31571 8.60854 3.35754 8.64929C3.39936 8.69005 3.44883 8.72215 3.50308 8.74375ZM4.72183 6.89062L4.99996 6.19062L5.27808 6.89062H4.72183ZM5.66572 11.225H4.33447C4.27328 11.2198 4.21168 11.2274 4.15358 11.2473C4.09548 11.2672 4.04214 11.2989 3.99693 11.3405C3.95172 11.382 3.91563 11.4325 3.89095 11.4888C3.86626 11.545 3.85352 11.6057 3.85352 11.6671C3.85352 11.7285 3.86626 11.7893 3.89095 11.8455C3.91563 11.9017 3.95172 11.9522 3.99693 11.9938C4.04214 12.0354 4.09548 12.0671 4.15358 12.087C4.21168 12.1069 4.27328 12.1145 4.33447 12.1093H5.66572C5.72692 12.1145 5.78851 12.1069 5.84661 12.087C5.90471 12.0671 5.95806 12.0354 6.00326 11.9938C6.04847 11.9522 6.08456 11.9017 6.10925 11.8455C6.13393 11.7893 6.14668 11.7285 6.14668 11.6671C6.14668 11.6057 6.13393 11.545 6.10925 11.4888C6.08456 11.4325 6.04847 11.382 6.00326 11.3405C5.95806 11.2989 5.90471 11.2672 5.84661 11.2473C5.78851 11.2274 5.72692 11.2198 5.66572 11.225ZM10.3344 12.5562H11.6656C11.7833 12.5562 11.8962 12.6029 11.9794 12.6861C12.0626 12.7693 12.1094 12.8822 12.1094 12.9999C12.1094 13.1176 12.0626 13.2305 11.9794 13.3137C11.8962 13.3969 11.7833 13.4437 11.6656 13.4437H10.3344C10.2167 13.4437 10.1038 13.3969 10.0206 13.3137C9.93738 13.2305 9.89062 13.1176 9.89062 12.9999C9.89062 12.8822 9.93738 12.7693 10.0206 12.6861C10.1038 12.6029 10.2167 12.5562 10.3344 12.5562ZM12.1095 7.33437C12.1102 7.57465 12.05 7.81118 11.9345 8.02188C12.232 8.16009 12.4737 8.39553 12.6195 8.68942C12.7654 8.98332 12.8068 9.31813 12.7369 9.6387C12.6671 9.95927 12.4901 10.2465 12.2352 10.453C11.9802 10.6596 11.6626 10.7731 11.3345 10.775H9.66572C9.54886 10.775 9.43679 10.7286 9.35415 10.6459C9.27152 10.5633 9.2251 10.4512 9.2251 10.3344V6.33437C9.22509 6.21722 9.27142 6.10483 9.35396 6.0217C9.43651 5.93857 9.54857 5.89145 9.66572 5.89062H10.6657C11.0486 5.89062 11.4159 6.04273 11.6866 6.31349C11.9574 6.58425 12.1095 6.95147 12.1095 7.33437ZM11.7278 9.7277C11.8321 9.62339 11.8907 9.4819 11.8907 9.33438C11.8907 9.18656 11.8322 9.04475 11.728 8.93994C11.6238 8.83512 11.4823 8.77583 11.3345 8.775H10.1095V9.89062H11.3345C11.482 9.89062 11.6235 9.83202 11.7278 9.7277ZM10.1095 6.775V7.89062H10.6657C10.7425 7.89637 10.8196 7.88622 10.8923 7.86079C10.9649 7.83537 11.0316 7.79522 11.088 7.74286C11.1444 7.6905 11.1894 7.62705 11.2202 7.5565C11.251 7.48594 11.2669 7.40979 11.2669 7.33281C11.2669 7.25583 11.251 7.17968 11.2202 7.10913C11.1894 7.03857 11.1444 6.97513 11.088 6.92277C11.0316 6.87041 10.9649 6.83026 10.8923 6.80483C10.8196 6.77941 10.7425 6.76925 10.6657 6.775H10.1095Z" fill="black"/>
</svg>
