<svg width="124" height="81" viewBox="0 0 124 81" fill="none" xmlns="http://www.w3.org/2000/svg">
<path d="M123.627 52.3657C123.627 68.034 111.173 80.4881 95.5048 80.4881C94.3316 80.4881 93.1752 80.6643 92.0393 80.5262C78.0058 78.8168 67.1351 66.8608 67.1351 52.3657C67.1351 37.8705 78.006 25.9145 92.0395 24.2054C93.1754 24.067 94.3318 24.2432 95.5051 24.2432C111.173 24.2432 123.627 36.6973 123.627 52.3657Z" fill="#FFD15B"/>
<path d="M62.3656 8.81585C66.5579 8.81585 70.543 9.71683 74.1409 11.3319L71.1724 14.3004C70.1628 15.3101 70.8024 17.0388 72.2261 17.1482L86.0539 18.2108C87.0757 18.2893 87.9267 17.4383 87.8482 16.4165L86.7856 2.5887C86.6762 1.1652 84.9472 0.525603 83.9379 1.535L80.5881 4.88446C75.1894 1.87163 68.9749 0.152588 62.3656 0.152588C41.6765 0.152588 24.8445 16.9846 24.8445 37.6737V58.2581L33.5077 56.1108V37.6737C33.5077 21.7612 46.4531 8.81585 62.3656 8.81585Z" fill="#51CB4F"/>
<path d="M95.5049 23.9957C94.3316 23.9957 93.1754 24.0683 92.0396 24.2069C106.073 25.916 116.944 37.8706 116.944 52.3657C116.944 66.8608 106.073 78.8154 92.0396 80.5245C93.1754 80.6629 94.3316 80.7354 95.5049 80.7354C111.173 80.7354 123.875 68.0338 123.875 52.3654C123.875 36.6971 111.173 23.9957 95.5049 23.9957Z" fill="#FFC344"/>
<path d="M57.3486 52.3657C57.3486 68.034 44.8945 80.4881 29.2262 80.4881C28.0529 80.4881 26.8965 80.6643 25.7606 80.5262C11.7271 78.8168 0.856445 66.8608 0.856445 52.3657C0.856445 37.8705 11.7271 25.9145 25.7609 24.2054C26.8967 24.067 28.0532 24.2432 29.2264 24.2432C44.8945 24.2432 57.3486 36.6973 57.3486 52.3657Z" fill="#FFD15B"/>
<path d="M29.2264 23.9957C28.0532 23.9957 26.897 24.0683 25.7611 24.2069C39.7946 25.9162 50.6658 37.8708 50.6658 52.3657C50.6658 66.8606 39.7946 78.8154 25.7611 80.5245C26.897 80.6629 28.0532 80.7354 29.2264 80.7354C44.8948 80.7354 57.5964 68.0338 57.5964 52.3654C57.5964 36.6971 44.8945 23.9957 29.2264 23.9957Z" fill="#FFC344"/>
<path d="M29.2264 72.0593C40.1029 72.0593 48.92 63.2422 48.92 52.3657C48.92 41.4892 40.1029 32.6721 29.2264 32.6721C18.35 32.6721 9.53284 41.4892 9.53284 52.3657C9.53284 63.2422 18.35 72.0593 29.2264 72.0593Z" fill="#FFF0AD"/>
<path d="M95.5049 72.0593C106.381 72.0593 115.198 63.2422 115.198 52.3657C115.198 41.4892 106.381 32.6721 95.5049 32.6721C84.6284 32.6721 75.8113 41.4892 75.8113 52.3657C75.8113 63.2422 84.6284 72.0593 95.5049 72.0593Z" fill="#FFF0AD"/>
<path d="M103.268 42.7123H99.8584V55.7972H99.6734L90.6593 42.7123H87.54V61.8507H90.9765V48.7657H91.1351L100.202 61.8507H103.268V42.7123Z" fill="#FFD15B"/>
<rect x="83.9" y="50.833" width="4.0603" height="2.70687" fill="#FFD15B"/>
<rect x="102.848" y="50.833" width="4.0603" height="2.70687" fill="#FFD15B"/>
<path d="M28.6002 60.4457L23.4542 63.1511C22.5463 63.6284 21.4852 62.8576 21.6584 61.8465L22.6413 56.1163C22.7102 55.7148 22.5772 55.3052 22.2854 55.0208L18.1221 50.9627C17.3874 50.2466 17.7929 48.9993 18.808 48.8518L24.5614 48.0157C24.9646 47.957 25.3128 47.704 25.4933 47.3387L28.0663 42.1251C28.5202 41.2054 29.8319 41.2054 30.2858 42.1251L32.8588 47.3387C33.039 47.704 33.3875 47.9573 33.7907 48.0157L39.5441 48.8518C40.5592 48.9993 40.9646 50.2468 40.23 50.9627L36.0667 55.0208C35.7751 55.3052 35.6419 55.7148 35.7107 56.1163L36.6937 61.8465C36.8672 62.8576 35.8058 63.6284 34.8979 63.1511L29.7519 60.4457C29.3915 60.2561 28.9606 60.2561 28.6002 60.4457Z" fill="#FFD15B"/>
</svg>
