<svg width="26" height="26" viewBox="0 0 26 26" fill="none" xmlns="http://www.w3.org/2000/svg">
<path d="M25.35 11.258C25.3492 11.2574 25.3486 11.2566 25.348 11.256L14.742 0.650438C14.29 0.198166 13.6889 -0.0507812 13.0496 -0.0507812C12.4103 -0.0507812 11.8092 0.198166 11.3569 0.650438L0.756536 11.2506C0.752965 11.2542 0.749196 11.258 0.745824 11.2616C-0.182522 12.1953 -0.180935 13.7102 0.750387 14.6415C1.17588 15.0672 1.73765 15.3136 2.33849 15.3395C2.36309 15.3419 2.38769 15.3431 2.41248 15.3431H2.835V23.148C2.835 24.6926 4.09184 25.9493 5.6365 25.9493H9.7859C10.2066 25.9493 10.5476 25.6081 10.5476 25.1875V19.0684C10.5476 18.3636 11.1211 17.7903 11.8259 17.7903H14.2733C14.9781 17.7903 15.5514 18.3636 15.5514 19.0684V25.1875C15.5514 25.6081 15.8924 25.9493 16.3131 25.9493H20.4625C22.0073 25.9493 23.264 24.6926 23.264 23.148V15.3431H23.6559C24.2951 15.3431 24.8961 15.0942 25.3486 14.6417C26.2809 13.709 26.2813 12.1913 25.35 11.258ZM24.2713 13.5646C24.1068 13.729 23.8882 13.8197 23.6559 13.8197H22.5023C22.0815 13.8197 21.7405 14.1607 21.7405 14.5814V23.148C21.7405 23.8526 21.1673 24.4258 20.4625 24.4258H17.0748V19.0684C17.0748 17.5237 15.8182 16.2669 14.2733 16.2669H11.8259C10.281 16.2669 9.02418 17.5237 9.02418 19.0684V24.4258H5.6365C4.93191 24.4258 4.35844 23.8526 4.35844 23.148V14.5814C4.35844 14.1607 4.01745 13.8197 3.59672 13.8197H2.46287C2.45097 13.8189 2.43926 13.8183 2.42716 13.8181C2.20023 13.8141 1.98739 13.7241 1.8279 13.5644C1.4887 13.2252 1.4887 12.6731 1.8279 12.3337C1.8281 12.3337 1.8281 12.3335 1.8283 12.3333L1.8289 12.3327L12.4345 1.72756C12.5987 1.56311 12.8171 1.47266 13.0496 1.47266C13.2819 1.47266 13.5003 1.56311 13.6647 1.72756L24.2679 12.3305C24.2695 12.3321 24.2713 12.3337 24.2729 12.3353C24.6103 12.6751 24.6097 13.226 24.2713 13.5646Z" fill="#C5C8CE"/>
</svg>
