<svg width="18" height="20" viewBox="0 0 18 20" fill="none" xmlns="http://www.w3.org/2000/svg">
<path d="M14.2202 8.59375L17.0563 4.33961C17.2161 4.09988 17.2311 3.79164 17.0951 3.53762C16.9591 3.28359 16.6944 3.125 16.4062 3.125H10.9375V2.34375C10.9375 1.05141 9.88609 0 8.59375 0H0.78125C0.349766 0 0 0.349766 0 0.78125V19.2188C0 19.6502 0.349766 20 0.78125 20C1.21273 20 1.5625 19.6502 1.5625 19.2188V10.9375H6.38438C6.29766 11.182 6.25 11.4449 6.25 11.7188C6.25 13.0111 7.30141 14.0625 8.59375 14.0625H16.4062C16.6944 14.0625 16.9591 13.9039 17.0951 13.6499C17.231 13.3959 17.2161 13.0876 17.0563 12.8479L14.2202 8.59375ZM1.5625 1.5625H8.59375C9.02453 1.5625 9.375 1.91297 9.375 2.34375V8.59375C9.375 9.02453 9.02453 9.375 8.59375 9.375H1.5625V1.5625ZM8.59375 12.5C8.16297 12.5 7.8125 12.1495 7.8125 11.7188C7.8125 11.288 8.16297 10.9375 8.59375 10.9375C9.88609 10.9375 10.9375 9.88609 10.9375 8.59375V4.6875H14.9465L12.6312 8.16039C12.4563 8.42281 12.4563 8.76469 12.6312 9.02711L14.9465 12.5H8.59375Z" fill="#86919D"/>
</svg>
