<svg width="28" height="28" viewBox="0 0 28 28" fill="none" xmlns="http://www.w3.org/2000/svg">
<path fill-rule="evenodd" clip-rule="evenodd" d="M13.9 0.459961C11.9798 0.459961 10.1383 1.22274 8.78056 2.58051C7.42279 3.93827 6.66001 5.77979 6.66001 7.69996C6.66001 9.62013 7.42279 11.4617 8.78056 12.8194C10.1383 14.1772 11.9798 14.94 13.9 14.94C15.8202 14.94 17.6617 14.1772 19.0195 12.8194C20.3772 11.4617 21.14 9.62013 21.14 7.69996C21.14 5.77979 20.3772 3.93827 19.0195 2.58051C17.6617 1.22274 15.8202 0.459961 13.9 0.459961ZM11.3111 3.82531C12.0774 3.31327 12.9783 3.03996 13.9 3.03996C14.512 3.03996 15.1179 3.1605 15.6833 3.39468C16.2487 3.62887 16.7624 3.97212 17.1951 4.40484C17.6278 4.83756 17.9711 5.35128 18.2053 5.91666C18.4395 6.48203 18.56 7.088 18.56 7.69996C18.56 8.62162 18.2867 9.52259 17.7747 10.2889C17.2626 11.0553 16.5348 11.6525 15.6833 12.0052C14.8318 12.3579 13.8948 12.4502 12.9909 12.2704C12.0869 12.0906 11.2566 11.6468 10.6049 10.9951C9.95318 10.3434 9.50936 9.51303 9.32955 8.60908C9.14974 7.70513 9.24203 6.76816 9.59473 5.91666C9.94744 5.06515 10.5447 4.33736 11.3111 3.82531ZM13.2 16.5599L13.1975 16.56C10.6321 16.587 8.18094 17.6251 6.37645 19.4487C4.57512 21.2692 3.56342 23.7258 3.56002 26.2865C3.54244 26.4529 3.56171 26.6212 3.61652 26.7794C3.67298 26.9424 3.76567 27.0904 3.88761 27.2124C4.00955 27.3343 4.15757 27.427 4.32052 27.4834C4.47449 27.5368 4.638 27.5565 4.80001 27.5413C4.96203 27.5565 5.12553 27.5368 5.2795 27.4834C5.44245 27.427 5.59047 27.3343 5.71241 27.2124C5.83435 27.0904 5.92704 26.9424 5.9835 26.7794C6.03829 26.6213 6.05757 26.453 6.04002 26.2867C6.04353 24.3925 6.79749 22.5767 8.13713 21.2371C9.47989 19.8943 11.3011 19.14 13.2 19.14H14.8C16.699 19.14 18.5201 19.8943 19.8629 21.2371C21.2025 22.5767 21.9565 24.3925 21.96 26.2867C21.9425 26.453 21.9617 26.6213 22.0165 26.7794C22.073 26.9424 22.1657 27.0904 22.2876 27.2124C22.4096 27.3343 22.5576 27.427 22.7205 27.4834C22.8745 27.5368 23.038 27.5565 23.2 27.5413C23.362 27.5565 23.5255 27.5368 23.6795 27.4834C23.8424 27.427 23.9905 27.3343 24.1124 27.2124C24.2344 27.0904 24.327 26.9424 24.3835 26.7794C24.4383 26.6212 24.4576 26.4529 24.44 26.2865C24.4366 23.7258 23.4249 21.2692 21.6236 19.4487C19.8191 17.6251 17.3679 16.587 14.8025 16.56L13.2 16.5599ZM16.9135 20.0202C16.7518 19.9855 16.5847 19.9836 16.4221 20.0145C16.2606 20.0452 16.1068 20.1077 15.9696 20.1984C15.8307 20.2864 15.7106 20.4011 15.6164 20.5359C15.5216 20.6715 15.4549 20.8247 15.4202 20.9864C15.3856 21.1482 15.3836 21.3153 15.4145 21.4778C15.445 21.6381 15.5068 21.7907 15.5963 21.927L16.4699 23.4122L14 24.8235L11.5301 23.4122L12.4065 21.9222C12.4929 21.7771 12.5487 21.6158 12.5705 21.4483C12.5923 21.2806 12.5796 21.1102 12.5331 20.9476C12.4867 20.785 12.4074 20.6337 12.3003 20.5028C12.1937 20.3726 12.0617 20.2654 11.9124 20.1879C11.6318 20.0361 11.3062 19.9895 10.9942 20.0563C10.6814 20.1234 10.403 20.3001 10.2091 20.5545C10.2043 20.5608 10.1998 20.5674 10.1956 20.5742L8.59561 23.1742C8.58665 23.1887 8.57927 23.2042 8.5736 23.2203C8.47203 23.5092 8.43362 23.8164 8.46097 24.1214C8.46243 24.1377 8.46555 24.1538 8.47028 24.1694C8.51842 24.3287 8.59812 24.4766 8.70464 24.6044C8.80948 24.7302 8.93818 24.834 9.0833 24.9098L13.2773 27.4062C13.3144 27.4283 13.3568 27.44 13.4 27.44H14.5C14.5424 27.44 14.584 27.4287 14.6206 27.4074L18.9156 24.9104C19.0612 24.8346 19.1903 24.7306 19.2954 24.6044C19.4019 24.4766 19.4816 24.3287 19.5297 24.1694C19.5333 24.1576 19.536 24.1455 19.5377 24.1333C19.5855 23.7923 19.5002 23.4462 19.2998 23.1666L17.7044 20.5742L17.7031 20.5721C17.615 20.4321 17.4997 20.3111 17.3641 20.2163C17.2285 20.1216 17.0753 20.0549 16.9135 20.0202Z" fill="#B067EE"/>
</svg>
