<svg width="26" height="26" viewBox="0 0 26 26" fill="none" xmlns="http://www.w3.org/2000/svg">
<g clip-path="url(#clip0_874_719)">
<path d="M13 4.79663C10.4996 4.79663 8.46521 6.83086 8.46521 9.33144C8.46521 11.8318 10.4996 13.866 13 13.866C15.5004 13.866 17.5348 11.8318 17.5348 9.33144C17.5348 6.83086 15.5004 4.79663 13 4.79663Z" fill="#0F172A"/>
<path d="M13 0C5.83171 0 0 5.83171 0 13C0 16.3167 1.2491 19.3465 3.30058 21.6457C3.73996 19.7164 4.74825 17.9561 6.2205 16.5848C7.25378 15.6224 8.46281 14.9021 9.76964 14.4542C8.07164 13.3797 6.94176 11.4851 6.94176 9.33145C6.94176 5.9908 9.65955 3.27321 13 3.27321C16.3405 3.27321 19.058 5.9908 19.058 9.33145C19.058 11.4841 17.9292 13.3781 16.2323 14.4528C17.6479 14.9376 18.9454 15.7426 20.0346 16.8318C21.3654 18.1626 22.2842 19.8354 22.6984 21.6465C24.7507 19.3473 26 16.317 26 13C26 5.83171 20.1683 0 13 0Z" fill="#0F172A"/>
<path d="M4.62625 22.9353C6.88998 24.8463 9.81248 26 13 26C16.1875 26 19.11 24.8461 21.3737 22.9353C21.1653 21.0413 20.3141 19.2657 18.9575 17.9091C17.3658 16.3174 15.25 15.4409 13 15.4409C8.71454 15.4409 5.09142 18.7101 4.62625 22.9353Z" fill="#0F172A"/>
</g>
<defs>
<clipPath id="clip0_874_719">
<rect width="26" height="26" fill="white"/>
</clipPath>
</defs>
</svg>
