<svg width="21" height="24" viewBox="0 0 21 24" fill="none" xmlns="http://www.w3.org/2000/svg">
<path fill-rule="evenodd" clip-rule="evenodd" d="M19.7313 16.3756C19.8553 16.5187 19.9831 16.6662 20.1144 16.8216C20.7273 17.549 20.1662 18.9129 19.096 18.9138H1.27329C0.196709 18.9138 -0.359768 17.5499 0.255812 16.8225C0.387299 16.6668 0.515371 16.5191 0.639602 16.3758C1.91827 14.9008 2.78996 13.8953 2.78996 9.47556C2.78996 5.03193 5.13226 3.45525 7.06356 2.686C7.19659 2.63056 7.31654 2.54787 7.41567 2.44326C7.5148 2.33864 7.59092 2.21442 7.63913 2.0786C7.97466 0.963832 8.92303 0 10.1851 0C11.4472 0 12.3937 0.963833 12.7311 2.0777C12.7796 2.21349 12.8559 2.33766 12.9552 2.44226C13.0545 2.54685 13.1745 2.62956 13.3076 2.68509C15.237 3.45252 17.5812 5.03193 17.5812 9.47465C17.5812 13.8952 18.4524 14.9003 19.7313 16.3756ZM6.78246 20.3983C6.82931 20.3777 6.87998 20.3672 6.93118 20.3674H13.43C13.4817 20.3671 13.5329 20.3777 13.5802 20.3987C13.6274 20.4196 13.6697 20.4504 13.7041 20.489C13.7386 20.5276 13.7644 20.573 13.7799 20.6224C13.7954 20.6717 13.8002 20.7238 13.794 20.7751C13.5647 22.4467 12.066 23.2793 10.1851 23.2793C8.28426 23.2793 6.77194 22.4731 6.5672 20.7696C6.56182 20.7187 6.56725 20.6673 6.58311 20.6186C6.59898 20.5699 6.62494 20.5251 6.65929 20.4872C6.69364 20.4492 6.73561 20.4189 6.78246 20.3983Z" fill="#374553"/>
</svg>
