<svg width="27" height="26" viewBox="0 0 27 26" fill="none" xmlns="http://www.w3.org/2000/svg">
<g clip-path="url(#clip0_874_560)">
<path fill-rule="evenodd" clip-rule="evenodd" d="M13.75 0C17.2224 0 20.487 1.35225 22.9424 3.80758C25.3977 6.263 26.75 9.52758 26.75 13C26.75 16.4724 25.3977 19.737 22.9424 22.1924C20.487 24.6477 17.2224 26 13.75 26C10.2776 26 7.013 24.6477 4.55758 22.1924C2.10225 19.737 0.75 16.4724 0.75 13C0.75 9.52758 2.10225 6.263 4.55758 3.80758C7.013 1.35225 10.2776 0 13.75 0ZM2.27344 13C2.27344 19.3282 7.42179 24.4766 13.75 24.4766C20.0782 24.4766 25.2266 19.3282 25.2266 13C25.2266 6.67179 20.0782 1.52344 13.75 1.52344C7.42179 1.52344 2.27344 6.67179 2.27344 13ZM21.4767 9.6781C21.7636 9.71979 22.002 9.92078 22.0916 10.1965C22.1812 10.4723 22.1065 10.775 21.8988 10.9773L18.377 14.4103L19.2084 19.2577C19.2574 19.5435 19.1399 19.8323 18.9054 20.0027C18.7727 20.0991 18.6155 20.1482 18.4576 20.1482C18.3363 20.1482 18.2146 20.1193 18.1032 20.0607L13.7499 17.7721L9.39677 20.0607C9.14012 20.1956 8.82919 20.1731 8.59458 20.0027C8.36002 19.8323 8.24256 19.5434 8.29157 19.2577L9.12296 14.4103L5.60113 10.9773C5.39353 10.775 5.31878 10.4723 5.40841 10.1965C5.49799 9.92078 5.73636 9.71979 6.02327 9.6781L10.8904 8.97087L13.0669 4.56057C13.1953 4.30062 13.4601 4.13599 13.75 4.13599C14.0399 4.13599 14.3047 4.30057 14.4331 4.56057L16.6096 8.97087L21.4767 9.6781ZM16.8078 14.2731C16.7654 14.026 16.8473 13.7739 17.0269 13.5989L19.7302 10.9638L15.9942 10.4209C15.7462 10.3849 15.5317 10.229 15.4207 10.0042L13.7499 6.61883L12.0791 10.0043C11.9682 10.2291 11.7537 10.3849 11.5056 10.421L7.76964 10.9638L10.473 13.599C10.6525 13.774 10.7345 14.0261 10.6921 14.2732L10.0539 17.994L13.3955 16.2373C13.5064 16.179 13.6282 16.1498 13.7499 16.1498C13.8717 16.1498 13.9934 16.179 14.1044 16.2373L17.446 17.994L16.8078 14.2731Z" fill="#C5C8CE"/>
</g>
<defs>
<clipPath id="clip0_874_560">
<rect width="26" height="26" fill="white" transform="translate(0.75)"/>
</clipPath>
</defs>
</svg>
