<svg width="16" height="16" viewBox="0 0 16 16" fill="none" xmlns="http://www.w3.org/2000/svg">
<path fill-rule="evenodd" clip-rule="evenodd" d="M0.228027 11.3468V12.428H15.7718V11.3468C15.7718 7.05928 12.2874 3.57178 7.9999 3.57178C3.7124 3.57178 0.228027 7.05928 0.228027 11.3468ZM14.8843 11.5405H13.8624V11.3468C13.8601 10.0237 13.4121 8.74009 12.5905 7.70303L13.3155 6.97803C14.3291 8.20837 14.8837 9.7527 14.8843 11.3468V11.5405ZM12.9749 11.5405H9.7124C9.69466 11.2807 9.61769 11.0285 9.4874 10.803L11.4624 8.82803L10.8343 8.1999L8.85928 10.1749C8.60692 10.0306 8.32213 9.95249 8.03146 9.94793C7.74078 9.94337 7.45368 10.0125 7.19692 10.1488C6.94016 10.2851 6.7221 10.4843 6.56306 10.7276C6.40403 10.971 6.30919 11.2506 6.2874 11.5405H3.0249V11.3468C3.0249 8.60303 5.25615 6.37178 7.9999 6.37178C10.7437 6.37178 12.9749 8.60303 12.9749 11.3468V11.5405ZM8.54189 11.0348C8.69269 11.1644 8.79199 11.3439 8.82178 11.5405H7.17803C7.20781 11.3439 7.30712 11.1644 7.45792 11.0348C7.60872 10.9051 7.80101 10.8338 7.9999 10.8338C8.19879 10.8338 8.39109 10.9051 8.54189 11.0348ZM2.1374 11.5405H1.11553V11.3468C1.11646 9.7518 1.67093 8.20659 2.68428 6.9749L3.4124 7.70303C2.58823 8.73884 2.13885 10.0231 2.1374 11.3468V11.5405ZM11.9843 7.05303C11.0143 6.1493 9.76563 5.60266 8.44365 5.50303V4.4749C10.0375 4.57883 11.5456 5.23398 12.7093 6.32803L11.9843 7.05303ZM4.01553 7.0499L3.29053 6.32803C4.45424 5.23398 5.9623 4.57883 7.55615 4.4749V5.50303C6.23463 5.60204 4.98607 6.14753 4.01553 7.0499Z" fill="#374553"/>
</svg>
