<svg width="22" height="22" viewBox="0 0 22 22" fill="none" xmlns="http://www.w3.org/2000/svg">
<g clip-path="url(#clip0_3510_4228)">
<path fill-rule="evenodd" clip-rule="evenodd" d="M12.325 18.1422L16.7684 20.8179C16.9842 20.9478 17.2504 20.7548 17.1931 20.5099L16.0139 15.467C15.7977 14.5422 16.1127 13.574 16.8321 12.9523L20.76 9.55742C20.9505 9.39278 20.8487 9.08061 20.5976 9.05936L15.4289 8.62187C14.4813 8.54166 13.656 7.94475 13.2849 7.07115L11.2623 2.31027C11.1641 2.07918 10.8359 2.07918 10.7377 2.31027L8.71515 7.07115C8.34402 7.94476 7.51871 8.54166 6.57106 8.62187L1.40242 9.05936C1.1513 9.08061 1.04947 9.39278 1.23996 9.55741L5.16793 12.9523C5.88734 13.574 6.20233 14.5422 5.9861 15.467L4.80688 20.5099C4.74963 20.7548 5.01579 20.9478 5.23156 20.8179L9.67502 18.1422C10.4899 17.6516 11.5101 17.6516 12.325 18.1422ZM11.7361 19.1156C11.2834 18.843 10.7166 18.843 10.2639 19.1156L5.82044 21.7912C4.74163 22.4409 3.41079 21.4759 3.69707 20.2516L4.87628 15.2087C4.99641 14.6949 4.82141 14.157 4.42174 13.8116L0.493766 10.4168C-0.458666 9.59359 0.0504665 8.03275 1.30608 7.92647L6.47473 7.48899C7.0012 7.44443 7.4597 7.11281 7.66588 6.62748L9.68842 1.8666C10.1793 0.711134 11.8207 0.711132 12.3116 1.8666L14.3341 6.62748C14.5403 7.11281 14.9988 7.44443 15.5253 7.48899L20.6939 7.92647C21.9495 8.03275 22.4587 9.59359 21.5062 10.4168L17.5783 13.8116C17.1786 14.157 17.0036 14.6949 17.1237 15.2087L18.3029 20.2516C18.5892 21.4759 17.2584 22.4409 16.1796 21.7912L11.7361 19.1156Z" fill="#C5C8CE"/>
</g>
<defs>
<clipPath id="clip0_3510_4228">
<rect width="22" height="22" fill="white"/>
</clipPath>
</defs>
</svg>
