<svg width="36" height="35" viewBox="0 0 36 35" fill="none" xmlns="http://www.w3.org/2000/svg">
<path d="M16.2065 1.63397C16.9402 0.14748 19.0598 0.14748 19.7935 1.63397L23.7064 9.56244C23.9977 10.1527 24.5609 10.5619 25.2123 10.6565L33.9619 11.9279C35.6023 12.1663 36.2573 14.1822 35.0703 15.3393L28.739 21.5107C28.2677 21.9702 28.0526 22.6322 28.1638 23.281L29.6584 31.9952C29.9387 33.629 28.2238 34.875 26.7565 34.1036L18.9307 29.9893C18.348 29.683 17.652 29.683 17.0693 29.9893L9.24345 34.1036C7.7762 34.875 6.06133 33.629 6.34155 31.9952L7.83616 23.281C7.94744 22.6322 7.73234 21.9702 7.26097 21.5107L0.929712 15.3393C-0.257322 14.1822 0.397698 12.1663 2.03814 11.9279L10.7877 10.6565C11.4391 10.5619 12.0023 10.1527 12.2936 9.56244L16.2065 1.63397Z" fill="#D3D8DF"/>
</svg>
