<svg width="28" height="28" viewBox="0 0 28 28" fill="none" xmlns="http://www.w3.org/2000/svg">
<g clip-path="url(#clip0_3394_9939)">
<path fill-rule="evenodd" clip-rule="evenodd" d="M7.09268 0.75C3.59513 0.75 0.75 3.59513 0.75 7.09268V20.9073C0.75 24.4049 3.59513 27.25 7.09268 27.25H11.7656C12.4646 27.25 13.0312 26.6834 13.0312 25.9844C13.0312 25.2854 12.4646 24.7188 11.7656 24.7188H7.09268C4.9913 24.7188 3.28125 23.0087 3.28125 20.9073V7.09268C3.28125 4.9913 4.9913 3.28125 7.09268 3.28125H16.4396C18.541 3.28125 20.251 4.9913 20.251 7.09268C20.251 7.79168 20.8176 8.35831 21.5166 8.35831C22.2156 8.35831 22.7823 7.79168 22.7823 7.09269C22.7823 3.5951 19.9372 0.75 16.4386 0.75H7.09268ZM7.95703 7.35156C7.25803 7.35156 6.69141 7.91819 6.69141 8.61719C6.69141 9.31619 7.25803 9.88281 7.95703 9.88281H15.4727C16.1717 9.88281 16.7383 9.31619 16.7383 8.61719C16.7383 7.91819 16.1717 7.35156 15.4727 7.35156H7.95703ZM20.8555 9.89062C18.3373 9.89062 16.2891 11.9389 16.2891 14.457C16.2891 16.9752 18.3373 19.0234 20.8555 19.0234C23.3736 19.0234 25.4219 16.9752 25.4219 14.457C25.4219 11.9389 23.3736 9.89062 20.8555 9.89062ZM7.95703 11.2617C7.25803 11.2617 6.69141 11.8283 6.69141 12.5273C6.69141 13.2263 7.25803 13.793 7.95703 13.793H13.4414C14.1404 13.793 14.707 13.2263 14.707 12.5273C14.707 11.8283 14.1404 11.2617 13.4414 11.2617H7.95703ZM18.8203 14.457C18.8203 13.3351 19.7335 12.4219 20.8555 12.4219C21.9774 12.4219 22.8906 13.3351 22.8906 14.457C22.8906 15.579 21.9774 16.4922 20.8555 16.4922C19.7335 16.4922 18.8203 15.579 18.8203 14.457ZM7.95703 15.1211C7.25803 15.1211 6.69141 15.6877 6.69141 16.3867C6.69141 17.0857 7.25803 17.6523 7.95703 17.6523H13.4414C14.1404 17.6523 14.707 17.0857 14.707 16.3867C14.707 15.6877 14.1404 15.1211 13.4414 15.1211H7.95703ZM7.95703 19.0312C7.25803 19.0312 6.69141 19.5979 6.69141 20.2969C6.69141 20.9959 7.25803 21.5625 7.95703 21.5625H13.4414C14.1404 21.5625 14.707 20.9959 14.707 20.2969C14.707 19.5979 14.1404 19.0312 13.4414 19.0312H7.95703ZM20.4759 20.0469C17.214 20.0469 14.5625 22.7112 14.5625 25.9844C14.5625 26.6834 15.1291 27.25 15.8281 27.25C16.5271 27.25 17.0938 26.6834 17.0938 25.9844C17.0938 24.1048 18.6127 22.5781 20.4759 22.5781H21.3366C23.1998 22.5781 24.7188 24.1048 24.7188 25.9844C24.7188 26.6834 25.2854 27.25 25.9844 27.25C26.6834 27.25 27.25 26.6834 27.25 25.9844C27.25 22.7112 24.5985 20.0469 21.3366 20.0469H20.4759Z" fill="#B067EE"/>
</g>
<defs>
<clipPath id="clip0_3394_9939">
<rect width="28" height="28" fill="white"/>
</clipPath>
</defs>
</svg>
