<svg width="20" height="20" viewBox="0 0 20 20" fill="none" xmlns="http://www.w3.org/2000/svg">
<path d="M8.30774 1.68657C9.09221 0.441168 10.9078 0.441165 11.6923 1.68656L13.6225 4.75086C13.8961 5.18523 14.3262 5.49776 14.8239 5.62375L18.3347 6.51255C19.7615 6.87378 20.3226 8.6005 19.3805 9.73143L17.0627 12.5141C16.7341 12.9085 16.5698 13.4142 16.6038 13.9264L16.8434 17.54C16.9407 19.0087 15.4719 20.0759 14.1052 19.5294L10.7425 18.1849C10.2659 17.9943 9.73415 17.9943 9.25748 18.1849L5.89477 19.5294C4.52809 20.0759 3.05926 19.0087 3.15663 17.54L3.39622 13.9264C3.43018 13.4142 3.26588 12.9085 2.93732 12.5141L0.619455 9.73142C-0.322572 8.60049 0.238473 6.87378 1.66533 6.51255L5.17612 5.62375C5.67378 5.49776 6.10393 5.18523 6.37754 4.75087L8.30774 1.68657Z" fill="#D19CFF"/>
</svg>
