<svg width="20" height="23" viewBox="0 0 20 23" fill="none" xmlns="http://www.w3.org/2000/svg">
<path d="M16.0862 5.46533L17.6603 3.89124L19.1921 5.42308L17.618 6.99716C19.1734 8.94409 19.9243 11.4127 19.7165 13.896C19.5087 16.3792 18.3579 18.6887 16.5005 20.35C14.6432 22.0113 12.2201 22.8984 9.72916 22.8291C7.23816 22.7597 4.86826 21.7392 3.10618 19.9771C1.3441 18.2151 0.323594 15.8452 0.254249 13.3542C0.184904 10.8632 1.07198 8.44018 2.73331 6.5828C4.39463 4.72541 6.70408 3.57464 9.18736 3.36682C11.6706 3.159 14.1392 3.90991 16.0862 5.46533ZM10 20.6667C10.9959 20.6667 11.982 20.4705 12.902 20.0894C13.8221 19.7083 14.6581 19.1497 15.3622 18.4456C16.0664 17.7414 16.625 16.9054 17.0061 15.9853C17.3872 15.0653 17.5833 14.0792 17.5833 13.0833C17.5833 12.0875 17.3872 11.1014 17.0061 10.1813C16.625 9.26126 16.0664 8.42528 15.3622 7.7211C14.6581 7.01692 13.8221 6.45834 12.902 6.07724C11.982 5.69614 10.9959 5.49999 10 5.49999C7.98878 5.49999 6.05993 6.29895 4.63778 7.7211C3.21563 9.14325 2.41667 11.0721 2.41667 13.0833C2.41667 15.0946 3.21563 17.0234 4.63778 18.4456C6.05993 19.8677 7.98878 20.6667 10 20.6667ZM8.91667 7.66666H11.0833V14.1667H8.91667V7.66666ZM5.66667 0.0833282H14.3333V2.24999H5.66667V0.0833282Z" fill="#C5C8CE"/>
</svg>
